<svg width="131" height="130" viewBox="0 0 131 130" fill="none" xmlns="http://www.w3.org/2000/svg">
<g clip-path="url(#clip0_2439_69)">
<path d="M61.0564 111.56C61.9763 111.56 62.7224 112.306 62.7224 113.226C62.7224 114.146 61.9763 114.892 61.0564 114.892C60.1365 114.892 59.3904 114.146 59.3904 113.226C59.3904 112.306 60.1365 111.56 61.0564 111.56Z" fill="#ED8400" stroke="#ED8400" stroke-width="0.862185"/>
<path d="M119.766 115.323C120.924 115.323 121.863 114.384 121.863 113.226C121.863 112.068 120.924 111.129 119.766 111.129C118.608 111.129 117.669 112.068 117.669 113.226C117.669 114.384 118.608 115.323 119.766 115.323Z" fill="#ED8400"/>
<path d="M113.476 96.4516H109.282V92.2581H121.863C124.176 92.2581 126.056 90.3772 126.056 88.0646V71.2903C126.056 68.9775 124.176 67.0968 121.863 67.0968H117.669V62.9032C117.669 60.5904 115.789 58.7097 113.476 58.7097H100.895C100.895 56.3969 99.0145 54.5162 96.7018 54.5162V46.1292C96.7018 41.5037 92.9402 37.7421 88.3148 37.7421C83.6894 37.7421 79.9278 41.5037 79.9278 46.1292H66.7034C65.4054 42.6484 63.7071 39.3671 61.627 36.3708L62.516 33.7058C62.9374 32.4394 63.1535 31.1184 63.1535 29.7765C63.1535 24.87 60.2579 20.4144 55.775 18.4225L25.4116 4.92776V4.19396C25.4113 1.88091 23.5304 0 21.2178 0C9.65609 0 0.25 9.40609 0.25 20.9678V23.9746V33.5484C0.25 35.8612 2.13091 37.7419 4.44352 37.7419V71.393C2.05539 71.8627 0.25 73.9678 0.25 76.4923C0.25 77.6686 0.652583 78.8218 1.38857 79.7423L5.7373 85.1793C2.20206 89.7776 0.25 95.4201 0.25 101.245C0.25 106.778 1.95053 112.083 5.16484 116.585L5.94702 117.677C9.58078 122.768 15.4853 125.806 21.7377 125.806C25.9102 125.806 30.0473 124.429 33.3811 121.923L36.3104 119.726C37.363 118.942 37.9921 117.686 37.9921 116.371V113.226C37.9921 110.913 36.1112 109.032 33.7986 109.032H31.3433L25.4116 77.3855V34.104C32.157 37.2386 38.0258 41.9794 42.5149 47.9637L50.8349 59.0578L46.461 85.3074C46.4087 85.6303 46.3792 85.9573 46.3792 86.2887C46.3792 89.5808 49.0567 92.2583 52.3487 92.2583H63.1535V96.4518H58.9599C49.711 96.4518 42.1856 103.977 42.1856 113.226C42.1856 122.475 49.711 130 58.9599 130H113.476C122.725 130 130.25 122.475 130.25 113.226C130.25 103.977 122.725 96.4516 113.476 96.4516ZM67.3468 113.226C67.3468 116.694 64.5245 119.516 61.0565 119.516C57.5884 119.516 54.7662 116.694 54.7662 113.226C54.7662 109.758 57.5884 106.936 61.0565 106.936C64.5245 106.935 67.3468 109.758 67.3468 113.226ZM109.282 113.226H71.5403C71.5403 111.733 71.2174 110.32 70.6513 109.032H109.282V113.226ZM81.1289 117.419C80.5083 118.675 79.2629 119.516 77.8308 119.516C76.3987 119.516 75.1532 118.675 74.5326 117.419H81.1289ZM93.7095 117.419C93.0889 118.675 91.8435 119.516 90.4113 119.516C88.9792 119.516 87.7338 118.675 87.1132 117.419H93.7095ZM106.29 117.419C105.67 118.675 104.424 119.516 102.992 119.516C101.56 119.516 100.315 118.675 99.694 117.419H106.29ZM114.948 88.0646L121.863 82.137V88.0646H114.948ZM121.863 76.6182L108.509 88.0646H88.3146V71.2903H121.863V76.6182ZM84.1211 54.5162H55.8417L56.5401 50.3227H84.1211V54.5162ZM84.1211 79.6775H71.5405V71.2905H84.1211V79.6775ZM55.1436 58.7097H67.3468V75.484H52.3485L55.1436 58.7097ZM71.5403 83.8711H84.1208V88.0646H71.5403V83.8711ZM84.1211 67.0968H71.5405V58.7097H84.1211V67.0968ZM96.7016 58.7097V67.0968H88.3146V58.7097H96.7016ZM113.476 62.9032V67.0968H100.895V62.9032H113.476ZM88.3146 41.9354C90.6274 41.9354 92.5081 43.8163 92.5081 46.1289V54.516H88.3146V50.3225C88.3146 48.0096 86.4337 46.1289 84.1211 46.1289C84.1211 43.8163 86.0018 41.9354 88.3146 41.9354ZM58.9597 29.7763C58.9597 30.6633 58.8192 31.5377 58.5383 32.3763L58.5195 32.4308C53.8584 27.1051 47.9748 22.9157 41.3678 20.2717L42.6112 17.1622L54.0722 22.2553C57.0412 23.574 58.9597 26.5263 58.9597 29.7763ZM38.7761 15.4575L37.4048 18.8857C35.2723 18.2588 33.0854 17.7787 30.8503 17.481L26.0801 16.8435C25.8516 16.8141 25.6355 16.8393 25.4113 16.8288V9.51729L38.7761 15.4575ZM4.44352 20.9678C4.44352 11.7189 11.9689 4.19352 21.2178 4.19352V17.7723C18.7456 19.1353 17.0243 21.7561 17.0243 24.7693V25.2662C17.0243 28.2102 18.6745 30.9043 21.2178 32.2883V75.4838H16.9319L14.9757 32.4768C14.9107 31.072 14.1517 29.8012 12.944 29.0738L4.44374 23.9744V20.9678H4.44352ZM4.44352 33.5484V28.8643L10.7863 32.6699L10.8262 33.5484H4.44352ZM11.0169 37.7419L12.5412 71.2903H8.63704V37.7419H11.0169ZM4.44352 76.4904C4.44352 75.9367 4.89645 75.484 5.44987 75.484H12.732L12.7949 76.847L8.47548 81.8855L4.66353 77.1217C4.52123 76.9433 4.44352 76.7189 4.44352 76.4904ZM9.36055 115.243L8.57837 114.148C5.87347 110.362 4.44352 105.9 4.44352 101.245C4.44352 95.9505 6.34107 90.8176 9.78809 86.7962L15.3676 80.2879L22.5427 121.546C22.2743 121.563 22.0081 121.613 21.7375 121.613C16.8356 121.613 12.208 119.231 9.36055 115.243ZM31.3452 113.226H33.7984V116.371L30.8649 118.57C29.5922 119.527 28.1686 120.262 26.6673 120.778L19.5173 79.6775H21.5742L27.2229 109.806C27.5961 111.787 29.3282 113.226 31.3452 113.226ZM45.8695 45.4496C40.2018 37.893 32.5298 32.1436 23.6856 28.8264C22.2095 28.2728 21.2178 26.8428 21.2178 25.2682V24.7712C21.2178 22.5068 23.2307 20.6992 25.5245 21.0013L30.2968 21.6388C44.4982 23.5322 56.7371 33.018 62.2224 46.1292H56.5401C54.4851 46.1292 52.745 47.6011 52.403 49.6351L51.7844 53.3422L45.8695 45.4496ZM50.5727 86.2885C50.5727 86.19 50.581 86.0915 50.5979 85.995L51.6504 79.6773H67.3468V88.0644H52.3485C51.3693 88.0646 50.5727 87.2677 50.5727 86.2885ZM67.3468 92.2581H105.089V96.4516H67.3468V92.2581ZM46.3789 113.226C46.3789 106.288 52.0215 100.645 58.9595 100.645H109.282V104.839H67.2817C65.535 103.539 63.3943 102.742 61.0565 102.742C55.2756 102.742 50.5727 107.445 50.5727 113.226C50.5727 119.007 55.2758 123.71 61.0565 123.71C65.0571 123.71 68.498 121.433 70.2655 118.13L70.3222 118.298C71.4021 121.535 74.4194 123.71 77.8308 123.71C80.3511 123.71 82.6535 122.517 84.1211 120.59C85.5889 122.517 87.891 123.71 90.4113 123.71C92.9317 123.71 95.234 122.517 96.7016 120.59C98.1694 122.517 100.472 123.71 102.992 123.71C105.512 123.71 107.815 122.517 109.282 120.59V125.806H58.9597C52.0215 125.806 46.3789 120.164 46.3789 113.226ZM113.476 125.806V100.645C120.414 100.645 126.056 106.288 126.056 113.226C126.056 120.164 120.414 125.806 113.476 125.806Z" fill="#ED8400"/>
</g>
<defs>
<clipPath id="clip0_2439_69">
<rect width="130" height="130" fill="white" transform="translate(0.25)"/>
</clipPath>
</defs>
</svg>
