<svg width="130" height="130" viewBox="0 0 130 130" fill="none" xmlns="http://www.w3.org/2000/svg">
<g clip-path="url(#clip0_2439_145)">
<path d="M49.833 2H80.167C80.2581 2.00003 80.333 2.07426 80.333 2.16699C80.333 2.25843 80.2586 2.33297 80.167 2.33301H65.166V12.6543L66.6641 13.043C68.158 13.4302 69.4687 14.3233 70.375 15.5664L70.5508 15.8203C72.5805 18.8912 71.7359 23.028 68.665 25.0566L66.2275 26.666L68.6094 28.3564L122.56 66.6309L123.079 67H127.833C127.926 67 128 67.0742 128 67.167V127.833C128 127.926 127.926 128 127.833 128H2.16699C2.07424 128 2 127.926 2 127.833V67.167L2.0127 67.1016C2.03791 67.0416 2.09743 67 2.16699 67H6.64551L7.16406 66.6338L61.3867 28.3535L63.7822 26.6621L61.333 25.0498C59.4659 23.8201 58.3395 21.7352 58.334 19.5C58.334 19.4071 58.409 19.333 58.5 19.333C58.592 19.333 58.667 19.408 58.667 19.5C58.667 22.9972 61.5019 25.834 65 25.834C68.4981 25.834 71.333 22.9972 71.333 19.5C71.333 16.0024 68.4976 13.167 65 13.167C64.908 13.167 64.833 13.092 64.833 13V2.33301H49.833C49.7414 2.33297 49.667 2.25843 49.667 2.16699C49.667 2.07426 49.7419 2.00003 49.833 2ZM2.33301 127.667H127.667V67.333H2.33301V127.667ZM63.8467 27.0195L12.3711 63.3662L7.22461 67H122.493L117.377 63.3691L66.1572 27.0225L65.0029 26.2031L63.8467 27.0195Z" fill="#ED8400" stroke="#ED8400" stroke-width="4"/>
<path d="M73.6661 121.334C74.8635 121.334 75.8339 120.363 75.8339 119.166V75.8339C75.8339 74.6365 74.8635 73.6661 73.6661 73.6661C72.4704 73.6661 71.5 74.6365 71.5 75.8339V119.166C71.5 120.363 72.4704 121.334 73.6661 121.334Z" fill="#ED8400"/>
<path d="M91 121.334C92.1965 121.334 93.1669 120.363 93.1669 119.166V75.8339C93.1669 74.6365 92.1965 73.6661 91 73.6661C89.8035 73.6661 88.8339 74.6365 88.8339 75.8339V119.166C88.8339 120.363 89.8035 121.334 91 121.334Z" fill="#ED8400"/>
<path d="M108.334 121.334C109.53 121.334 110.5 120.363 110.5 119.166V75.8339C110.5 74.6365 109.53 73.6661 108.334 73.6661C107.137 73.6661 106.166 74.6365 106.166 75.8339V119.166C106.166 120.363 107.137 121.334 108.334 121.334Z" fill="#ED8400"/>
<path d="M21.6661 121.334C22.8635 121.334 23.8339 120.363 23.8339 119.166V75.8339C23.8339 74.6365 22.8635 73.6661 21.6661 73.6661C20.4704 73.6661 19.5 74.6365 19.5 75.8339V119.166C19.5 120.363 20.4704 121.334 21.6661 121.334Z" fill="#ED8400"/>
<path d="M39 121.334C40.1965 121.334 41.1661 120.363 41.1661 119.166V75.8339C41.1661 74.6365 40.1965 73.6661 39 73.6661C37.8035 73.6661 36.8331 74.6365 36.8331 75.8339V119.166C36.8331 120.363 37.8035 121.334 39 121.334Z" fill="#ED8400"/>
<path d="M56.3339 121.334C57.5296 121.334 58.5 120.363 58.5 119.166V75.8339C58.5 74.6365 57.5296 73.6661 56.3339 73.6661C55.1365 73.6661 54.1661 74.6365 54.1661 75.8339V119.166C54.1661 120.363 55.1365 121.334 56.3339 121.334Z" fill="#ED8400"/>
</g>
<defs>
<clipPath id="clip0_2439_145">
<rect width="130" height="130" fill="white"/>
</clipPath>
</defs>
</svg>
