<svg width="131" height="130" viewBox="0 0 131 130" fill="none" xmlns="http://www.w3.org/2000/svg">
<mask id="path-1-inside-1_2439_244" fill="white">
<path d="M128.212 69.0221C128.211 68.9842 128.21 68.9463 128.206 68.9084C128.204 68.8817 128.201 68.8555 128.198 68.829C128.193 68.7939 128.188 68.7588 128.182 68.724C128.176 68.6952 128.17 68.6667 128.164 68.6385C128.156 68.6072 128.149 68.5761 128.14 68.5451C128.131 68.5136 128.121 68.4828 128.11 68.452C128.101 68.425 128.091 68.3981 128.081 68.3714C128.067 68.3375 128.053 68.3047 128.038 68.2719C128.027 68.2485 128.016 68.2251 128.004 68.2019C127.986 68.1673 127.967 68.1337 127.948 68.1004C127.939 68.0869 127.933 68.0727 127.925 68.0592L120.75 56.5795C121.599 55.5471 122.109 54.2265 122.109 52.7887C122.109 50.1591 120.402 47.9224 118.039 47.1241V11.9569H118.166C121.463 11.9569 124.145 9.27503 124.145 5.97847V1.90802C124.145 0.854286 123.29 0 122.237 0H106.724C104.603 0 102.472 0.489217 100.564 1.41474L41.0191 30.2847C39.9336 29.18 38.4242 28.4932 36.7568 28.4932H35.7954C33.1069 28.4932 30.7351 30.3048 30.0276 32.8987L27.8988 40.7045H22.5103C21.4565 40.7045 20.6022 41.5588 20.6022 42.6125C20.6022 43.6663 21.4565 44.5205 22.5103 44.5205H26.858L25.1235 50.8806H8.26369C4.96713 50.8806 2.28522 53.5625 2.28522 56.8591V71.1057V79.2466C2.28522 80.3003 3.1395 81.1546 4.19324 81.1546H26.7079V85.4795H14.3694C11.0728 85.4795 8.39089 88.1614 8.39089 91.4579V99.5988V117.465L6.55715 121.133C6.42461 121.398 6.35567 121.69 6.35567 121.986V126.184H6.22847C5.17473 126.184 4.32044 127.038 4.32044 128.092C4.32044 129.146 5.17473 130 6.22847 130H20.475C21.5288 130 22.3831 129.146 22.3831 128.092C22.3831 127.038 21.5288 126.184 20.475 126.184H20.3478V101.507H51.1306V126.184H51.0034C49.9497 126.184 49.0954 127.038 49.0954 128.092C49.0954 129.146 49.9497 130 51.0034 130H65.25C66.3037 130 67.158 129.146 67.158 128.092C67.158 127.038 66.3037 126.184 65.25 126.184H65.1228V121.986C65.1228 121.69 65.0538 121.398 64.9213 121.133L63.0876 117.465V99.5988V91.4579C63.0876 88.1614 60.4056 85.4795 57.1091 85.4795H44.7705V81.1546H48.9682C50.0219 81.1546 50.8762 80.3003 50.8762 79.2466V71.1057C50.8762 70.3903 50.4819 69.7675 49.899 69.4409L66.1636 60.5693C66.3236 60.4821 66.4704 60.3724 66.5991 60.2434L114.223 12.6199V47.1241C111.859 47.9224 110.152 50.1591 110.152 52.7887C110.152 54.2265 110.662 55.5471 111.511 56.5795L104.337 68.0592C104.328 68.0727 104.322 68.0867 104.314 68.1004C104.294 68.1337 104.275 68.1673 104.257 68.2019C104.245 68.2251 104.234 68.2485 104.224 68.2719C104.209 68.3047 104.194 68.3378 104.181 68.3714C104.17 68.3981 104.16 68.425 104.151 68.452C104.141 68.4828 104.131 68.5136 104.122 68.5451C104.113 68.5761 104.105 68.6072 104.098 68.6385C104.091 68.6667 104.085 68.6952 104.08 68.724C104.073 68.7591 104.068 68.7939 104.064 68.829C104.06 68.8552 104.057 68.8817 104.055 68.9084C104.052 68.9463 104.05 68.9842 104.049 69.0221C104.049 69.0384 104.047 69.0542 104.047 69.0704V81.2818C104.047 82.3355 104.901 83.1898 105.955 83.1898H126.307C127.361 83.1898 128.215 82.3355 128.215 81.2818V69.0704C128.215 69.0542 128.213 69.0384 128.212 69.0221ZM116.131 58.7671C116.607 58.7671 117.07 58.7094 117.515 58.6035L122.864 67.1624H109.397L114.746 58.6035C115.191 58.7094 115.654 58.7671 116.131 58.7671ZM102.229 4.84842C103.198 4.37828 104.247 4.06613 105.317 3.91781L68.5303 40.7045H42.7353V34.4716C42.7353 34.216 42.7173 33.9646 42.686 33.7173L102.229 4.84842ZM42.7353 44.5205H64.7142L42.7353 66.4995V44.5205ZM33.7093 33.9025C33.9653 32.9643 34.8231 32.3092 35.7954 32.3092H36.7568C37.9492 32.3092 38.9193 33.2792 38.9193 34.4716V50.8806H29.0787L33.7093 33.9025ZM8.26369 54.6967H38.9193V69.1977H6.10126V56.8591C6.10126 55.6667 7.0713 54.6967 8.26369 54.6967ZM16.5318 126.184H10.1717V122.437L12.0055 118.769C12.138 118.504 12.2069 118.212 12.2069 117.916V101.507H16.5318V126.184ZM54.9467 126.184V101.507H59.2715V117.916C59.2715 118.212 59.3405 118.504 59.473 118.769L61.3067 122.437V126.184H54.9467ZM59.2715 91.4579V97.6908H12.2069V91.4579C12.2069 90.2655 13.177 89.2955 14.3694 89.2955H57.1091C58.3015 89.2955 59.2715 90.2655 59.2715 91.4579ZM40.9545 85.4795H30.524V81.1546H40.9545V85.4795ZM47.0602 77.3386H6.10126V73.0137H42.8587C42.8605 73.0137 42.8625 73.014 42.8643 73.014C42.8663 73.014 42.8684 73.0137 42.8704 73.0137H47.0602V77.3386ZM112.746 8.69982L64.095 57.3509L49.1028 65.5284L70.6693 43.9619C70.6695 43.9616 70.6698 43.9614 70.67 43.9611L110.815 3.81605H120.328V5.97847C120.328 7.17086 119.358 8.1409 118.166 8.1409H114.095C113.589 8.1409 113.104 8.34188 112.746 8.69982ZM116.131 50.6262C117.323 50.6262 118.293 51.5963 118.293 52.7887C118.293 53.981 117.323 54.9511 116.131 54.9511C114.938 54.9511 113.968 53.981 113.968 52.7887C113.968 51.5963 114.938 50.6262 116.131 50.6262ZM124.399 79.3738H107.863V70.9785H124.399V79.3738Z"/>
</mask>
<path d="M128.212 69.0221C128.211 68.9842 128.21 68.9463 128.206 68.9084C128.204 68.8817 128.201 68.8555 128.198 68.829C128.193 68.7939 128.188 68.7588 128.182 68.724C128.176 68.6952 128.17 68.6667 128.164 68.6385C128.156 68.6072 128.149 68.5761 128.14 68.5451C128.131 68.5136 128.121 68.4828 128.11 68.452C128.101 68.425 128.091 68.3981 128.081 68.3714C128.067 68.3375 128.053 68.3047 128.038 68.2719C128.027 68.2485 128.016 68.2251 128.004 68.2019C127.986 68.1673 127.967 68.1337 127.948 68.1004C127.939 68.0869 127.933 68.0727 127.925 68.0592L120.75 56.5795C121.599 55.5471 122.109 54.2265 122.109 52.7887C122.109 50.1591 120.402 47.9224 118.039 47.1241V11.9569H118.166C121.463 11.9569 124.145 9.27503 124.145 5.97847V1.90802C124.145 0.854286 123.29 0 122.237 0H106.724C104.603 0 102.472 0.489217 100.564 1.41474L41.0191 30.2847C39.9336 29.18 38.4242 28.4932 36.7568 28.4932H35.7954C33.1069 28.4932 30.7351 30.3048 30.0276 32.8987L27.8988 40.7045H22.5103C21.4565 40.7045 20.6022 41.5588 20.6022 42.6125C20.6022 43.6663 21.4565 44.5205 22.5103 44.5205H26.858L25.1235 50.8806H8.26369C4.96713 50.8806 2.28522 53.5625 2.28522 56.8591V71.1057V79.2466C2.28522 80.3003 3.1395 81.1546 4.19324 81.1546H26.7079V85.4795H14.3694C11.0728 85.4795 8.39089 88.1614 8.39089 91.4579V99.5988V117.465L6.55715 121.133C6.42461 121.398 6.35567 121.69 6.35567 121.986V126.184H6.22847C5.17473 126.184 4.32044 127.038 4.32044 128.092C4.32044 129.146 5.17473 130 6.22847 130H20.475C21.5288 130 22.3831 129.146 22.3831 128.092C22.3831 127.038 21.5288 126.184 20.475 126.184H20.3478V101.507H51.1306V126.184H51.0034C49.9497 126.184 49.0954 127.038 49.0954 128.092C49.0954 129.146 49.9497 130 51.0034 130H65.25C66.3037 130 67.158 129.146 67.158 128.092C67.158 127.038 66.3037 126.184 65.25 126.184H65.1228V121.986C65.1228 121.69 65.0538 121.398 64.9213 121.133L63.0876 117.465V99.5988V91.4579C63.0876 88.1614 60.4056 85.4795 57.1091 85.4795H44.7705V81.1546H48.9682C50.0219 81.1546 50.8762 80.3003 50.8762 79.2466V71.1057C50.8762 70.3903 50.4819 69.7675 49.899 69.4409L66.1636 60.5693C66.3236 60.4821 66.4704 60.3724 66.5991 60.2434L114.223 12.6199V47.1241C111.859 47.9224 110.152 50.1591 110.152 52.7887C110.152 54.2265 110.662 55.5471 111.511 56.5795L104.337 68.0592C104.328 68.0727 104.322 68.0867 104.314 68.1004C104.294 68.1337 104.275 68.1673 104.257 68.2019C104.245 68.2251 104.234 68.2485 104.224 68.2719C104.209 68.3047 104.194 68.3378 104.181 68.3714C104.17 68.3981 104.16 68.425 104.151 68.452C104.141 68.4828 104.131 68.5136 104.122 68.5451C104.113 68.5761 104.105 68.6072 104.098 68.6385C104.091 68.6667 104.085 68.6952 104.08 68.724C104.073 68.7591 104.068 68.7939 104.064 68.829C104.06 68.8552 104.057 68.8817 104.055 68.9084C104.052 68.9463 104.05 68.9842 104.049 69.0221C104.049 69.0384 104.047 69.0542 104.047 69.0704V81.2818C104.047 82.3355 104.901 83.1898 105.955 83.1898H126.307C127.361 83.1898 128.215 82.3355 128.215 81.2818V69.0704C128.215 69.0542 128.213 69.0384 128.212 69.0221ZM116.131 58.7671C116.607 58.7671 117.07 58.7094 117.515 58.6035L122.864 67.1624H109.397L114.746 58.6035C115.191 58.7094 115.654 58.7671 116.131 58.7671ZM102.229 4.84842C103.198 4.37828 104.247 4.06613 105.317 3.91781L68.5303 40.7045H42.7353V34.4716C42.7353 34.216 42.7173 33.9646 42.686 33.7173L102.229 4.84842ZM42.7353 44.5205H64.7142L42.7353 66.4995V44.5205ZM33.7093 33.9025C33.9653 32.9643 34.8231 32.3092 35.7954 32.3092H36.7568C37.9492 32.3092 38.9193 33.2792 38.9193 34.4716V50.8806H29.0787L33.7093 33.9025ZM8.26369 54.6967H38.9193V69.1977H6.10126V56.8591C6.10126 55.6667 7.0713 54.6967 8.26369 54.6967ZM16.5318 126.184H10.1717V122.437L12.0055 118.769C12.138 118.504 12.2069 118.212 12.2069 117.916V101.507H16.5318V126.184ZM54.9467 126.184V101.507H59.2715V117.916C59.2715 118.212 59.3405 118.504 59.473 118.769L61.3067 122.437V126.184H54.9467ZM59.2715 91.4579V97.6908H12.2069V91.4579C12.2069 90.2655 13.177 89.2955 14.3694 89.2955H57.1091C58.3015 89.2955 59.2715 90.2655 59.2715 91.4579ZM40.9545 85.4795H30.524V81.1546H40.9545V85.4795ZM47.0602 77.3386H6.10126V73.0137H42.8587C42.8605 73.0137 42.8625 73.014 42.8643 73.014C42.8663 73.014 42.8684 73.0137 42.8704 73.0137H47.0602V77.3386ZM112.746 8.69982L64.095 57.3509L49.1028 65.5284L70.6693 43.9619C70.6695 43.9616 70.6698 43.9614 70.67 43.9611L110.815 3.81605H120.328V5.97847C120.328 7.17086 119.358 8.1409 118.166 8.1409H114.095C113.589 8.1409 113.104 8.34188 112.746 8.69982ZM116.131 50.6262C117.323 50.6262 118.293 51.5963 118.293 52.7887C118.293 53.981 117.323 54.9511 116.131 54.9511C114.938 54.9511 113.968 53.981 113.968 52.7887C113.968 51.5963 114.938 50.6262 116.131 50.6262ZM124.399 79.3738H107.863V70.9785H124.399V79.3738Z" fill="#ED8400" stroke="#ED8400" stroke-width="2.00391" mask="url(#path-1-inside-1_2439_244)"/>
<path d="M12.3341 62.8375H16.4046C17.4583 62.8375 18.3126 61.9832 18.3126 60.9295C18.3126 59.8758 17.4583 59.0215 16.4046 59.0215H12.3341C11.2804 59.0215 10.4261 59.8758 10.4261 60.9295C10.4261 61.9832 11.2804 62.8375 12.3341 62.8375Z" fill="#ED8400"/>
<path d="M28.6159 62.8375H32.6864C33.7401 62.8375 34.5944 61.9832 34.5944 60.9295C34.5944 59.8758 33.7401 59.0215 32.6864 59.0215H28.6159C27.5622 59.0215 26.7079 59.8758 26.7079 60.9295C26.7079 61.9832 27.5622 62.8375 28.6159 62.8375Z" fill="#ED8400"/>
<path d="M22.5103 62.8375C23.0114 62.8375 23.505 62.634 23.8586 62.2778C24.2148 61.9242 24.4183 61.4307 24.4183 60.9295C24.4183 60.4258 24.2148 59.9348 23.8586 59.5812C23.505 59.225 23.0114 59.0215 22.5103 59.0215C22.0091 59.0215 21.5155 59.225 21.1619 59.5812C20.8058 59.9348 20.6022 60.4258 20.6022 60.9295C20.6022 61.4307 20.8058 61.9242 21.1619 62.2778C21.5155 62.634 22.0091 62.8375 22.5103 62.8375Z" fill="#ED8400"/>
</svg>
