<svg width="131" height="130" viewBox="0 0 131 130" fill="none" xmlns="http://www.w3.org/2000/svg">
<g clip-path="url(#clip0_2439_135)">
<mask id="path-1-inside-1_2439_135" fill="white">
<path d="M11.7419 115.523C10.1187 115.523 8.40979 115.363 6.95928 114.879C2.47321 113.387 1.08464 104.945 0.766671 102.394C0.691645 101.801 0.876233 101.205 1.27161 100.758C1.66579 100.311 2.23384 100.054 2.83048 100.054C2.77332 100.054 4.56441 99.8501 7.34275 97.0742C9.51374 94.9032 10.3235 88.0175 10.3235 84.1864C10.3235 83.3564 10.8154 82.6073 11.574 82.2774L39.0978 70.3114C39.985 69.9315 41.0163 70.2006 41.5915 70.9711C41.8475 71.2903 44.4103 74.2377 49.7657 71.5547C52.1463 70.3662 55.3224 69.3229 58.3937 68.3155C61.596 67.2639 67.4992 65.3251 68.265 64.0116C68.2459 63.9913 68.2185 63.9485 68.1792 63.8937C66.325 61.425 64.1505 60.9689 62.563 60.6378C61.4519 60.4044 59.3857 59.9733 59.3857 57.8595C59.3857 57.6558 59.4095 57.3105 59.4476 56.8615C59.8847 51.5621 58.988 50.451 58.4151 50.2592C56.0822 49.4911 52.2011 52.3266 51.3627 54.0034C50.435 55.8564 48.5367 61.344 47.8841 63.3042C47.6567 63.9866 47.0898 64.5046 46.3884 64.6702C45.6869 64.8428 44.9498 64.6273 44.4389 64.1176C41.7165 61.3976 38.4654 58.8836 37.4817 58.7407C37.4805 58.7407 37.4793 58.7407 37.4793 58.7407C33.3815 58.7407 33.0588 52.5707 33.0588 50.6784C33.0588 50.2056 33.2195 49.7483 33.5149 49.378L38.3022 43.3961C38.3987 43.2771 38.5083 43.1687 38.6274 43.071C39.9099 42.0445 51.352 33.0414 57.8769 33.0414C63.5038 33.0414 81.3111 37.6632 83.2821 39.6341C84.0942 40.4475 84.0942 41.767 83.2809 42.578C82.5104 43.3497 81.2837 43.3866 80.4668 42.6959C78.5602 41.5574 63.4609 37.2035 57.8769 37.2035C54.1065 37.2035 45.8608 42.6483 41.4069 46.1816L37.2435 51.3822C37.321 52.7113 37.5937 54.0736 37.8938 54.6012C39.935 54.831 42.7133 56.896 44.9915 58.917C45.806 56.6055 46.9112 53.5973 47.64 52.142C49.1262 49.1612 54.8472 44.6752 59.7323 46.3126C64.0647 47.756 63.8754 53.5735 63.6431 56.6114C65.539 57.0127 68.8247 57.819 71.5078 61.3976C72.6486 62.9184 72.5557 64.2962 72.2759 65.1846C71.2886 68.3202 66.8514 69.9196 59.693 72.2692C56.7634 73.2302 53.735 74.2246 51.6283 75.2774C45.9858 78.0986 41.7094 76.5266 39.4598 74.6915L14.4547 85.5631C14.3261 88.8356 13.6616 96.6419 10.2854 100.016C8.24425 102.057 6.48531 103.11 5.1801 103.648C5.84342 107.082 7.13673 110.55 8.27522 110.928C10.5022 111.672 14.2987 111.276 16.1803 110.971L26.4886 100.662C26.8054 100.343 27.2198 100.138 27.6664 100.073L36.0431 98.8772C36.4218 98.8236 36.8053 98.8736 37.1566 99.0261L51.0078 104.96V102.133C51.0078 101.115 51.7438 100.247 52.7477 100.081L59.9288 98.8855C60.5766 98.7795 61.2506 98.9844 61.7246 99.45C62.1986 99.9145 62.4249 100.577 62.3296 101.233C62.3284 101.265 62.1724 102.861 63.5014 104.341C65.1996 106.233 68.6341 107.234 73.4334 107.234C85.8544 107.234 86.9393 101.795 88.0873 96.0345L88.1444 95.744C88.3457 94.7377 88.9578 91.6771 91.5027 90.7053C94.4597 89.5728 97.7894 92.0737 101.008 94.4876C104.674 97.2362 111.743 100.135 114.576 100.633C115.055 97.6244 116.58 92.9561 116.931 91.9034C117.05 91.5473 117.264 91.2281 117.549 90.984C117.626 90.9173 125.323 84.1697 126.411 74.383C127.201 67.2722 125.231 60.1436 123.495 53.8557C122.735 51.1095 122.019 48.5158 121.639 46.234C121.094 42.9639 121.637 40.881 122.138 39.5734C122.091 39.5615 122.042 39.5496 121.991 39.5353C119.786 38.9899 110.833 41.1323 99.733 44.8859C98.6433 45.2563 97.4631 44.6716 97.0952 43.5819C96.7272 42.4923 97.3107 41.3121 98.3992 40.9441C107.394 37.9014 118.959 34.4824 123.002 35.4982C124.607 35.8995 125.882 36.3032 126.484 37.5251C127.052 38.6779 126.603 39.708 126.277 40.4606C125.856 41.4276 125.28 42.7543 125.746 45.5517C126.09 47.619 126.779 50.1104 127.508 52.7482C129.254 59.0694 131.427 66.9376 130.548 74.8427C129.427 84.945 122.568 91.9927 120.713 93.7349C119.78 96.599 118.594 100.802 118.594 102.135C118.594 103.154 118.044 104.037 117.121 104.499C113.587 106.263 101.8 100.284 98.5123 97.8185C97.2416 96.8646 93.8536 94.3292 92.9878 94.5948C92.9902 94.5948 92.5638 94.8877 92.228 96.5621L92.1708 96.8491C90.9478 102.989 89.271 111.397 73.4346 111.397C67.2468 111.397 62.8286 109.919 60.3003 107.005C59.2154 105.753 58.6688 104.456 58.4032 103.361L55.1724 103.899V108.118C55.1724 108.819 54.821 109.47 54.2363 109.857C53.6528 110.241 52.9156 110.31 52.2714 110.031L36.055 103.083L28.9431 104.099L18.6621 114.377C18.3704 114.667 18.0012 114.865 17.5987 114.946C17.1735 115.032 14.5929 115.523 11.7419 115.523ZM80.3358 42.578C80.337 42.578 80.3394 42.5804 80.3406 42.5828C80.3394 42.5804 80.337 42.578 80.3358 42.578Z"/>
</mask>
<path d="M11.7419 115.523C10.1187 115.523 8.40979 115.363 6.95928 114.879C2.47321 113.387 1.08464 104.945 0.766671 102.394C0.691645 101.801 0.876233 101.205 1.27161 100.758C1.66579 100.311 2.23384 100.054 2.83048 100.054C2.77332 100.054 4.56441 99.8501 7.34275 97.0742C9.51374 94.9032 10.3235 88.0175 10.3235 84.1864C10.3235 83.3564 10.8154 82.6073 11.574 82.2774L39.0978 70.3114C39.985 69.9315 41.0163 70.2006 41.5915 70.9711C41.8475 71.2903 44.4103 74.2377 49.7657 71.5547C52.1463 70.3662 55.3224 69.3229 58.3937 68.3155C61.596 67.2639 67.4992 65.3251 68.265 64.0116C68.2459 63.9913 68.2185 63.9485 68.1792 63.8937C66.325 61.425 64.1505 60.9689 62.563 60.6378C61.4519 60.4044 59.3857 59.9733 59.3857 57.8595C59.3857 57.6558 59.4095 57.3105 59.4476 56.8615C59.8847 51.5621 58.988 50.451 58.4151 50.2592C56.0822 49.4911 52.2011 52.3266 51.3627 54.0034C50.435 55.8564 48.5367 61.344 47.8841 63.3042C47.6567 63.9866 47.0898 64.5046 46.3884 64.6702C45.6869 64.8428 44.9498 64.6273 44.4389 64.1176C41.7165 61.3976 38.4654 58.8836 37.4817 58.7407C37.4805 58.7407 37.4793 58.7407 37.4793 58.7407C33.3815 58.7407 33.0588 52.5707 33.0588 50.6784C33.0588 50.2056 33.2195 49.7483 33.5149 49.378L38.3022 43.3961C38.3987 43.2771 38.5083 43.1687 38.6274 43.071C39.9099 42.0445 51.352 33.0414 57.8769 33.0414C63.5038 33.0414 81.3111 37.6632 83.2821 39.6341C84.0942 40.4475 84.0942 41.767 83.2809 42.578C82.5104 43.3497 81.2837 43.3866 80.4668 42.6959C78.5602 41.5574 63.4609 37.2035 57.8769 37.2035C54.1065 37.2035 45.8608 42.6483 41.4069 46.1816L37.2435 51.3822C37.321 52.7113 37.5937 54.0736 37.8938 54.6012C39.935 54.831 42.7133 56.896 44.9915 58.917C45.806 56.6055 46.9112 53.5973 47.64 52.142C49.1262 49.1612 54.8472 44.6752 59.7323 46.3126C64.0647 47.756 63.8754 53.5735 63.6431 56.6114C65.539 57.0127 68.8247 57.819 71.5078 61.3976C72.6486 62.9184 72.5557 64.2962 72.2759 65.1846C71.2886 68.3202 66.8514 69.9196 59.693 72.2692C56.7634 73.2302 53.735 74.2246 51.6283 75.2774C45.9858 78.0986 41.7094 76.5266 39.4598 74.6915L14.4547 85.5631C14.3261 88.8356 13.6616 96.6419 10.2854 100.016C8.24425 102.057 6.48531 103.11 5.1801 103.648C5.84342 107.082 7.13673 110.55 8.27522 110.928C10.5022 111.672 14.2987 111.276 16.1803 110.971L26.4886 100.662C26.8054 100.343 27.2198 100.138 27.6664 100.073L36.0431 98.8772C36.4218 98.8236 36.8053 98.8736 37.1566 99.0261L51.0078 104.96V102.133C51.0078 101.115 51.7438 100.247 52.7477 100.081L59.9288 98.8855C60.5766 98.7795 61.2506 98.9844 61.7246 99.45C62.1986 99.9145 62.4249 100.577 62.3296 101.233C62.3284 101.265 62.1724 102.861 63.5014 104.341C65.1996 106.233 68.6341 107.234 73.4334 107.234C85.8544 107.234 86.9393 101.795 88.0873 96.0345L88.1444 95.744C88.3457 94.7377 88.9578 91.6771 91.5027 90.7053C94.4597 89.5728 97.7894 92.0737 101.008 94.4876C104.674 97.2362 111.743 100.135 114.576 100.633C115.055 97.6244 116.58 92.9561 116.931 91.9034C117.05 91.5473 117.264 91.2281 117.549 90.984C117.626 90.9173 125.323 84.1697 126.411 74.383C127.201 67.2722 125.231 60.1436 123.495 53.8557C122.735 51.1095 122.019 48.5158 121.639 46.234C121.094 42.9639 121.637 40.881 122.138 39.5734C122.091 39.5615 122.042 39.5496 121.991 39.5353C119.786 38.9899 110.833 41.1323 99.733 44.8859C98.6433 45.2563 97.4631 44.6716 97.0952 43.5819C96.7272 42.4923 97.3107 41.3121 98.3992 40.9441C107.394 37.9014 118.959 34.4824 123.002 35.4982C124.607 35.8995 125.882 36.3032 126.484 37.5251C127.052 38.6779 126.603 39.708 126.277 40.4606C125.856 41.4276 125.28 42.7543 125.746 45.5517C126.09 47.619 126.779 50.1104 127.508 52.7482C129.254 59.0694 131.427 66.9376 130.548 74.8427C129.427 84.945 122.568 91.9927 120.713 93.7349C119.78 96.599 118.594 100.802 118.594 102.135C118.594 103.154 118.044 104.037 117.121 104.499C113.587 106.263 101.8 100.284 98.5123 97.8185C97.2416 96.8646 93.8536 94.3292 92.9878 94.5948C92.9902 94.5948 92.5638 94.8877 92.228 96.5621L92.1708 96.8491C90.9478 102.989 89.271 111.397 73.4346 111.397C67.2468 111.397 62.8286 109.919 60.3003 107.005C59.2154 105.753 58.6688 104.456 58.4032 103.361L55.1724 103.899V108.118C55.1724 108.819 54.821 109.47 54.2363 109.857C53.6528 110.241 52.9156 110.31 52.2714 110.031L36.055 103.083L28.9431 104.099L18.6621 114.377C18.3704 114.667 18.0012 114.865 17.5987 114.946C17.1735 115.032 14.5929 115.523 11.7419 115.523ZM80.3358 42.578C80.337 42.578 80.3394 42.5804 80.3406 42.5828C80.3394 42.5804 80.337 42.578 80.3358 42.578Z" fill="#ED8400" stroke="#ED8400" stroke-width="2.40141" mask="url(#path-1-inside-1_2439_135)"/>
<path d="M7.61666 77.8926C6.6711 77.8926 5.83152 77.2507 5.59811 76.3147L4.40126 71.5273C4.25955 70.9581 4.36316 70.3567 4.68827 69.8684L6.1352 67.6998L4.94907 66.5125C4.24764 65.8111 4.13808 64.7119 4.68827 63.8866L6.4746 61.2059L4.4882 56.2387C4.35244 55.9017 4.30957 55.5337 4.36078 55.1717L6.75446 38.4207C6.87117 37.5989 7.46542 36.9261 8.26689 36.707C9.06359 36.495 9.91865 36.7677 10.4391 37.4144C14.2713 42.2017 19.0325 47.7715 20.2937 48.7242C20.8808 48.9302 21.4226 49.3649 21.6632 49.8948C22.3039 51.3096 21.3631 52.385 20.3663 53.5211C20.1234 53.7998 19.7137 54.2654 19.4112 54.6632C20.1293 55.2705 21.1535 56.0898 22.0907 56.8425C23.671 58.106 25.1644 59.2993 25.842 59.9757C27.4723 61.6084 26.9817 64.3403 26.6232 66.3339C26.5422 66.7852 26.4577 67.1746 26.4529 67.4354C26.4529 67.9189 26.4529 69.2075 22.5659 75.6847C22.2241 76.2539 21.631 76.6255 20.9689 76.6862L7.80601 77.8843C7.74289 77.8902 7.67859 77.8926 7.61666 77.8926ZM8.66345 71.4106L9.20411 73.5768L19.5315 72.6384C20.8057 70.4496 22.0859 68.0285 22.2932 67.283C22.311 66.7947 22.4122 66.2338 22.5266 65.5955C22.648 64.9215 22.9243 63.3805 22.7921 62.8172C22.1955 62.2539 20.7629 61.1106 19.491 60.0924C17.9012 58.8194 16.4006 57.6189 15.7195 56.9378C13.8414 55.0621 15.5885 52.6958 16.8639 51.2036C15.5384 49.9639 13.4996 47.7346 10.1997 43.7284L8.55984 55.2098L10.7463 60.6771C11.0012 61.3143 10.9261 62.0324 10.5451 62.604L9.09812 64.775L10.2854 65.9611C10.9869 66.6625 11.0964 67.7629 10.5451 68.587L8.66345 71.4106ZM22.2896 67.4319V67.433V67.4319ZM19.5886 48.5992C19.6506 48.5992 19.7137 48.6027 19.7768 48.6099C19.7173 48.6027 19.6553 48.5992 19.5886 48.5992ZM19.5839 48.5992H19.5875C19.5863 48.5992 19.5851 48.5992 19.5839 48.5992Z" fill="#ED8400"/>
<path d="M91.2074 54.238C90.5953 54.238 90.0141 53.9677 89.6187 53.5032C87.6978 51.2322 70.8516 31.0324 70.8516 20.4811C70.8516 9.25819 79.9833 0.126465 91.2074 0.126465C102.432 0.126465 111.562 9.25819 111.562 20.4811C111.562 31.0324 94.7157 51.2322 92.7948 53.5032C92.3995 53.9688 91.8183 54.238 91.2074 54.238ZM91.2074 4.28862C82.2781 4.28862 75.0149 11.553 75.0149 20.4811C75.0149 27.4097 85.5471 41.8813 91.2074 48.8873C96.8665 41.8813 107.4 27.4109 107.4 20.4811C107.4 11.553 100.135 4.28862 91.2074 4.28862ZM91.2074 29.6712C85.4697 29.6712 80.8002 25.0017 80.8002 19.264C80.8002 13.5275 85.4697 8.85805 91.2074 8.85805C96.9439 8.85805 101.613 13.5275 101.613 19.264C101.613 25.0017 96.9439 29.6712 91.2074 29.6712ZM91.2074 13.0214C87.7645 13.0214 84.9636 15.8212 84.9636 19.264C84.9636 22.7069 87.7645 25.5078 91.2074 25.5078C94.6502 25.5078 97.45 22.7069 97.45 19.264C97.45 15.8212 94.6502 13.0214 91.2074 13.0214Z" fill="#ED8400"/>
</g>
<defs>
<clipPath id="clip0_2439_135">
<rect width="130" height="130" fill="white" transform="translate(0.75)"/>
</clipPath>
</defs>
</svg>
