<svg width="130" height="130" viewBox="0 0 130 130" fill="none" xmlns="http://www.w3.org/2000/svg">
<mask id="path-1-inside-1_2439_45" fill="white">
<path d="M124.865 16.4903C124.54 16.3169 124.175 16.2347 123.808 16.2525C123.441 16.2703 123.085 16.3873 122.78 16.5912L118.071 19.7301L115.186 16.8448C114.805 16.464 114.289 16.25 113.75 16.25H110.943L107.442 9.24774C107.273 8.91035 107.014 8.6266 106.693 8.4283C106.372 8.22999 106.002 8.12497 105.625 8.125H95.4688C94.93 8.12503 94.4134 8.33904 94.0325 8.71997C93.6515 9.1009 93.4375 9.61754 93.4375 10.1562V20.3125H89.375C88.8363 20.3125 88.3196 20.5265 87.9387 20.9075C87.5578 21.2884 87.3438 21.805 87.3438 22.3438V28.4375C87.3437 28.8905 87.4951 29.3305 87.7739 29.6875C88.0527 30.0446 88.4428 30.2982 88.8823 30.408L92.2498 31.2501L86.7811 34.5312H83.2812C82.8549 34.5312 82.4394 34.6653 82.0935 34.9146C81.7477 35.1639 81.489 35.5156 81.3541 35.92L79.6209 41.1202L70.9219 44.5997L54.3759 40.9228L52.7084 35.92C52.6003 35.5959 52.4122 35.3043 52.1614 35.0721C51.9107 34.84 51.6054 34.6748 51.2739 34.592L44.6875 32.9453V28.4375C44.6875 27.8988 44.4735 27.3821 44.0927 27.0011L40.0302 22.9386C39.7286 22.6372 39.3399 22.4383 38.9191 22.37C38.4982 22.3017 38.0666 22.3676 37.6852 22.5582L21.4352 30.6832C21.0979 30.8519 20.8141 31.1113 20.6158 31.4321C20.4175 31.753 20.3125 32.1228 20.3125 32.5V38.8318L5.84183 40.6406C5.35056 40.7021 4.89864 40.9408 4.57099 41.3119C4.24334 41.6831 4.06252 42.1612 4.0625 42.6562V52.8125C4.06251 53.3512 4.27648 53.8679 4.65734 54.2489L11.6051 61.1964L8.46619 65.9045C8.18422 66.3274 8.07106 66.8407 8.14906 67.3429C8.22705 67.8452 8.49053 68.3 8.88746 68.6174L29.2 84.8674C29.4535 85.0703 29.7519 85.2094 30.0703 85.2731L40.2265 87.3043C40.4524 87.3495 40.6843 87.3559 40.9124 87.3234L52.8125 85.6232V89.0455L50.8854 94.8263C50.754 95.2205 50.7467 95.6455 50.8644 96.044C50.9821 96.4426 51.2192 96.7954 51.5437 97.0549L61.7 105.18C62.0601 105.468 62.5076 105.625 62.9688 105.625C63.4299 105.625 63.8774 105.468 64.2375 105.18L73.125 98.0701L82.0125 105.18C82.3553 105.454 82.7776 105.61 83.2164 105.624C83.6551 105.638 84.0865 105.509 84.4462 105.258L104.759 91.039C105.035 90.8453 105.259 90.5856 105.411 90.2835L113.536 74.0335C113.709 73.6865 113.78 73.297 113.739 72.9111C113.698 72.5253 113.547 72.1592 113.305 71.8562L105.992 62.7146L109.473 55.7523C109.647 55.4048 109.717 55.0148 109.676 54.6285C109.635 54.2422 109.484 53.8758 109.241 53.5728C108.998 53.2698 108.673 53.0428 108.305 52.9188C107.936 52.7948 107.54 52.779 107.164 52.8732L100.427 54.5571L98.2248 51.2534L103.808 47.0656L106.748 48.5355C107.105 48.7144 107.508 48.7838 107.904 48.735C108.301 48.6862 108.675 48.5213 108.978 48.261L123.197 36.0735C123.541 35.7787 123.776 35.3773 123.866 34.9333C123.956 34.4892 123.894 34.0279 123.692 33.6227L122.569 31.3773L124.815 30.2543C125.152 30.0856 125.436 29.8263 125.634 29.5054C125.833 29.1845 125.938 28.8147 125.938 28.4375V18.2812C125.937 17.9136 125.838 17.5528 125.649 17.2374C125.46 16.922 125.189 16.6638 124.865 16.4903ZM121.875 27.1821L118.935 28.652C118.453 28.893 118.087 29.3155 117.917 29.8265C117.746 30.3376 117.786 30.8954 118.027 31.3773L119.349 34.0212L107.358 44.2987L104.502 42.8707C104.165 42.7018 103.787 42.6303 103.411 42.6642C103.036 42.698 102.677 42.8359 102.375 43.0624L94.25 49.1562C93.8347 49.4677 93.5544 49.9265 93.4667 50.4383C93.3791 50.95 93.4907 51.4759 93.7787 51.908L97.8412 58.0017C98.0734 58.3505 98.4079 58.6188 98.7987 58.7699C99.1895 58.921 99.6175 58.9474 100.024 58.8455L103.864 57.8854L101.777 62.0602C101.603 62.4073 101.533 62.7968 101.574 63.1826C101.615 63.5685 101.765 63.9345 102.008 64.2375L109.321 73.3792L102.007 88.006L83.3623 101.057L74.3938 93.8826C74.0337 93.5945 73.5862 93.4375 73.125 93.4375C72.6638 93.4375 72.2163 93.5945 71.8562 93.8826L62.9688 100.992L55.1874 94.7675L56.7709 90.0175C56.8398 89.8103 56.875 89.5934 56.875 89.375V83.2812C56.875 82.9902 56.8124 82.7026 56.6916 82.4378C56.5708 82.1731 56.3944 81.9374 56.1746 81.7467C55.9547 81.556 55.6964 81.4148 55.4173 81.3326C55.1381 81.2504 54.8445 81.2292 54.5564 81.2703L40.682 83.2525L31.3517 81.3864L12.8793 66.6085L15.9088 62.0642C16.1693 61.6735 16.2864 61.2046 16.2401 60.7373C16.1939 60.27 15.9872 59.8332 15.6552 59.5011L8.125 51.9712V44.4495L22.5957 42.6406C23.0869 42.5792 23.5389 42.3405 23.8665 41.9693C24.1942 41.5981 24.375 41.1201 24.375 40.625V33.7554L38.1926 26.8466L40.625 29.2788V34.5312C40.625 34.9842 40.7764 35.4242 41.0552 35.7813C41.3339 36.1383 41.7241 36.3919 42.1636 36.5018L49.2067 38.2627L50.8854 43.2987C50.9964 43.6315 51.1916 43.9298 51.4521 44.1647C51.7126 44.3996 52.0295 44.5631 52.3719 44.6392L70.6531 48.7017C71.0521 48.7901 71.4685 48.7563 71.848 48.6047L82.0043 44.5422C82.2784 44.4326 82.5253 44.2646 82.7279 44.0498C82.9304 43.8351 83.0837 43.5788 83.1771 43.2987L84.7452 38.5938H87.3438C87.7119 38.5937 88.0731 38.4937 88.3889 38.3044L98.5451 32.2106C98.8896 32.0039 99.1651 31.6997 99.3367 31.3365C99.5083 30.9732 99.5683 30.5672 99.5092 30.1699C99.4501 29.7725 99.2744 29.4016 99.0045 29.104C98.7346 28.8065 98.3824 28.5957 97.9927 28.4982L91.4062 26.8516V24.375H95.4688C96.0075 24.375 96.5241 24.161 96.905 23.78C97.286 23.3991 97.5 22.8825 97.5 22.3438V12.1875H104.37L107.871 19.1898C108.039 19.5272 108.299 19.8109 108.62 20.0092C108.941 20.2075 109.31 20.3125 109.688 20.3125H112.909L116.376 23.7802C116.708 24.1122 117.145 24.3189 117.612 24.3651C118.08 24.4114 118.548 24.2943 118.939 24.0338L121.875 22.0767V27.1821Z"/>
</mask>
<path d="M124.865 16.4903C124.54 16.3169 124.175 16.2347 123.808 16.2525C123.441 16.2703 123.085 16.3873 122.78 16.5912L118.071 19.7301L115.186 16.8448C114.805 16.464 114.289 16.25 113.75 16.25H110.943L107.442 9.24774C107.273 8.91035 107.014 8.6266 106.693 8.4283C106.372 8.22999 106.002 8.12497 105.625 8.125H95.4688C94.93 8.12503 94.4134 8.33904 94.0325 8.71997C93.6515 9.1009 93.4375 9.61754 93.4375 10.1562V20.3125H89.375C88.8363 20.3125 88.3196 20.5265 87.9387 20.9075C87.5578 21.2884 87.3438 21.805 87.3438 22.3438V28.4375C87.3437 28.8905 87.4951 29.3305 87.7739 29.6875C88.0527 30.0446 88.4428 30.2982 88.8823 30.408L92.2498 31.2501L86.7811 34.5312H83.2812C82.8549 34.5312 82.4394 34.6653 82.0935 34.9146C81.7477 35.1639 81.489 35.5156 81.3541 35.92L79.6209 41.1202L70.9219 44.5997L54.3759 40.9228L52.7084 35.92C52.6003 35.5959 52.4122 35.3043 52.1614 35.0721C51.9107 34.84 51.6054 34.6748 51.2739 34.592L44.6875 32.9453V28.4375C44.6875 27.8988 44.4735 27.3821 44.0927 27.0011L40.0302 22.9386C39.7286 22.6372 39.3399 22.4383 38.9191 22.37C38.4982 22.3017 38.0666 22.3676 37.6852 22.5582L21.4352 30.6832C21.0979 30.8519 20.8141 31.1113 20.6158 31.4321C20.4175 31.753 20.3125 32.1228 20.3125 32.5V38.8318L5.84183 40.6406C5.35056 40.7021 4.89864 40.9408 4.57099 41.3119C4.24334 41.6831 4.06252 42.1612 4.0625 42.6562V52.8125C4.06251 53.3512 4.27648 53.8679 4.65734 54.2489L11.6051 61.1964L8.46619 65.9045C8.18422 66.3274 8.07106 66.8407 8.14906 67.3429C8.22705 67.8452 8.49053 68.3 8.88746 68.6174L29.2 84.8674C29.4535 85.0703 29.7519 85.2094 30.0703 85.2731L40.2265 87.3043C40.4524 87.3495 40.6843 87.3559 40.9124 87.3234L52.8125 85.6232V89.0455L50.8854 94.8263C50.754 95.2205 50.7467 95.6455 50.8644 96.044C50.9821 96.4426 51.2192 96.7954 51.5437 97.0549L61.7 105.18C62.0601 105.468 62.5076 105.625 62.9688 105.625C63.4299 105.625 63.8774 105.468 64.2375 105.18L73.125 98.0701L82.0125 105.18C82.3553 105.454 82.7776 105.61 83.2164 105.624C83.6551 105.638 84.0865 105.509 84.4462 105.258L104.759 91.039C105.035 90.8453 105.259 90.5856 105.411 90.2835L113.536 74.0335C113.709 73.6865 113.78 73.297 113.739 72.9111C113.698 72.5253 113.547 72.1592 113.305 71.8562L105.992 62.7146L109.473 55.7523C109.647 55.4048 109.717 55.0148 109.676 54.6285C109.635 54.2422 109.484 53.8758 109.241 53.5728C108.998 53.2698 108.673 53.0428 108.305 52.9188C107.936 52.7948 107.54 52.779 107.164 52.8732L100.427 54.5571L98.2248 51.2534L103.808 47.0656L106.748 48.5355C107.105 48.7144 107.508 48.7838 107.904 48.735C108.301 48.6862 108.675 48.5213 108.978 48.261L123.197 36.0735C123.541 35.7787 123.776 35.3773 123.866 34.9333C123.956 34.4892 123.894 34.0279 123.692 33.6227L122.569 31.3773L124.815 30.2543C125.152 30.0856 125.436 29.8263 125.634 29.5054C125.833 29.1845 125.938 28.8147 125.938 28.4375V18.2812C125.937 17.9136 125.838 17.5528 125.649 17.2374C125.46 16.922 125.189 16.6638 124.865 16.4903ZM121.875 27.1821L118.935 28.652C118.453 28.893 118.087 29.3155 117.917 29.8265C117.746 30.3376 117.786 30.8954 118.027 31.3773L119.349 34.0212L107.358 44.2987L104.502 42.8707C104.165 42.7018 103.787 42.6303 103.411 42.6642C103.036 42.698 102.677 42.8359 102.375 43.0624L94.25 49.1562C93.8347 49.4677 93.5544 49.9265 93.4667 50.4383C93.3791 50.95 93.4907 51.4759 93.7787 51.908L97.8412 58.0017C98.0734 58.3505 98.4079 58.6188 98.7987 58.7699C99.1895 58.921 99.6175 58.9474 100.024 58.8455L103.864 57.8854L101.777 62.0602C101.603 62.4073 101.533 62.7968 101.574 63.1826C101.615 63.5685 101.765 63.9345 102.008 64.2375L109.321 73.3792L102.007 88.006L83.3623 101.057L74.3938 93.8826C74.0337 93.5945 73.5862 93.4375 73.125 93.4375C72.6638 93.4375 72.2163 93.5945 71.8562 93.8826L62.9688 100.992L55.1874 94.7675L56.7709 90.0175C56.8398 89.8103 56.875 89.5934 56.875 89.375V83.2812C56.875 82.9902 56.8124 82.7026 56.6916 82.4378C56.5708 82.1731 56.3944 81.9374 56.1746 81.7467C55.9547 81.556 55.6964 81.4148 55.4173 81.3326C55.1381 81.2504 54.8445 81.2292 54.5564 81.2703L40.682 83.2525L31.3517 81.3864L12.8793 66.6085L15.9088 62.0642C16.1693 61.6735 16.2864 61.2046 16.2401 60.7373C16.1939 60.27 15.9872 59.8332 15.6552 59.5011L8.125 51.9712V44.4495L22.5957 42.6406C23.0869 42.5792 23.5389 42.3405 23.8665 41.9693C24.1942 41.5981 24.375 41.1201 24.375 40.625V33.7554L38.1926 26.8466L40.625 29.2788V34.5312C40.625 34.9842 40.7764 35.4242 41.0552 35.7813C41.3339 36.1383 41.7241 36.3919 42.1636 36.5018L49.2067 38.2627L50.8854 43.2987C50.9964 43.6315 51.1916 43.9298 51.4521 44.1647C51.7126 44.3996 52.0295 44.5631 52.3719 44.6392L70.6531 48.7017C71.0521 48.7901 71.4685 48.7563 71.848 48.6047L82.0043 44.5422C82.2784 44.4326 82.5253 44.2646 82.7279 44.0498C82.9304 43.8351 83.0837 43.5788 83.1771 43.2987L84.7452 38.5938H87.3438C87.7119 38.5937 88.0731 38.4937 88.3889 38.3044L98.5451 32.2106C98.8896 32.0039 99.1651 31.6997 99.3367 31.3365C99.5083 30.9732 99.5683 30.5672 99.5092 30.1699C99.4501 29.7725 99.2744 29.4016 99.0045 29.104C98.7346 28.8065 98.3824 28.5957 97.9927 28.4982L91.4062 26.8516V24.375H95.4688C96.0075 24.375 96.5241 24.161 96.905 23.78C97.286 23.3991 97.5 22.8825 97.5 22.3438V12.1875H104.37L107.871 19.1898C108.039 19.5272 108.299 19.8109 108.62 20.0092C108.941 20.2075 109.31 20.3125 109.688 20.3125H112.909L116.376 23.7802C116.708 24.1122 117.145 24.3189 117.612 24.3651C118.08 24.4114 118.548 24.2943 118.939 24.0338L121.875 22.0767V27.1821Z" fill="#ED8400" stroke="#ED8400" stroke-width="2" mask="url(#path-1-inside-1_2439_45)"/>
<path d="M81.5949 108.501L78.4228 111.673C77.6112 112.485 77.0582 113.519 76.8337 114.645C76.6092 115.771 76.7232 116.938 77.1614 117.999C77.5995 119.06 78.3422 119.968 79.2956 120.607C80.249 121.247 81.3705 121.589 82.5185 121.592C82.7601 121.592 83.0013 121.577 83.2411 121.547C84.1181 121.442 84.9592 121.137 85.6998 120.656C86.4404 120.174 87.0607 119.529 87.5128 118.77L89.8206 114.924C90.4808 113.824 90.7159 112.52 90.4815 111.258C90.2471 109.997 89.5595 108.864 88.5481 108.075C87.5367 107.285 86.2715 106.893 84.9908 106.971C83.71 107.05 82.5022 107.594 81.5949 108.501ZM86.337 112.834L84.0291 116.68C83.9017 116.893 83.7308 117.075 83.5276 117.216C83.3243 117.358 83.0934 117.454 82.8501 117.499C82.6068 117.544 82.3567 117.537 82.1163 117.479C81.8759 117.42 81.6507 117.311 81.4557 117.159C81.2606 117.006 81.1002 116.814 80.9849 116.595C80.8696 116.376 80.8022 116.135 80.7871 115.888C80.7719 115.641 80.8094 115.394 80.8971 115.162C80.9848 114.931 81.1206 114.721 81.2956 114.546L84.4677 111.374C84.6739 111.168 84.9484 111.044 85.2394 111.026C85.5305 111.008 85.818 111.098 86.0478 111.277C86.2777 111.457 86.4339 111.714 86.4872 112.001C86.5405 112.287 86.4871 112.584 86.337 112.834V112.834Z" fill="#ED8400"/>
<path d="M120.664 91.5077C120.248 90.2572 119.436 89.1758 118.353 88.4258C117.269 87.6758 115.971 87.2977 114.654 87.3482C113.337 87.3988 112.072 87.8754 111.048 88.7063C110.025 89.5373 109.299 90.6778 108.98 91.9565C108.515 93.8375 108.543 95.8065 109.06 97.6738C109.577 99.5411 110.566 101.244 111.932 102.618L112.61 103.295C113.164 103.853 113.823 104.296 114.549 104.598C115.275 104.9 116.053 105.056 116.84 105.057C117.489 105.056 118.135 104.951 118.751 104.745C119.499 104.496 120.19 104.102 120.785 103.585C121.381 103.069 121.869 102.441 122.221 101.736C122.574 101.031 122.784 100.263 122.84 99.4771C122.895 98.691 122.796 97.9015 122.547 97.1539L120.664 91.5077ZM117.466 100.891C117.125 101.006 116.758 101.023 116.408 100.94C116.057 100.857 115.737 100.678 115.483 100.422L114.805 99.745C113.933 98.8683 113.302 97.7818 112.972 96.5902C112.642 95.3987 112.624 94.1422 112.921 92.9418L112.921 92.9416C113.027 92.5159 113.269 92.1363 113.61 91.8597C113.95 91.5832 114.371 91.4245 114.81 91.4077C115.248 91.3909 115.68 91.5168 116.041 91.7664C116.402 92.0161 116.672 92.3761 116.81 92.7923L118.692 98.4385C118.855 98.9263 118.816 99.4585 118.587 99.9183C118.357 100.378 117.954 100.728 117.466 100.891Z" fill="#ED8400"/>
<path d="M64.5839 67.9336L71.9995 62.5457C72.3466 62.2936 72.6049 61.9381 72.7374 61.5302C72.87 61.1222 72.87 60.6828 72.7374 60.2748C72.6049 59.8669 72.3466 59.5113 71.9995 59.2592C71.6525 59.0071 71.2346 58.8713 70.8056 58.8713H61.6395L58.8068 50.1537C58.6743 49.7457 58.416 49.3901 58.069 49.138C57.7219 48.8858 57.304 48.75 56.875 48.75C56.446 48.75 56.0281 48.8858 55.681 49.138C55.334 49.3901 55.0757 49.7457 54.9432 50.1537L52.1106 58.8713H42.9444C42.5154 58.8713 42.0975 59.0071 41.7505 59.2592C41.4035 59.5113 41.1452 59.8669 41.0126 60.2748C40.8801 60.6828 40.8801 61.1222 41.0126 61.5302C41.1452 61.9381 41.4035 62.2936 41.7505 62.5457L49.1661 67.9336L46.3337 76.6514C46.2011 77.0594 46.2011 77.4989 46.3337 77.9068C46.4662 78.3148 46.7245 78.6703 47.0716 78.9224C47.4186 79.1745 47.8366 79.3103 48.2655 79.3103C48.6945 79.3102 49.1124 79.1744 49.4594 78.9222L56.875 73.5344L64.2906 78.9222C64.6376 79.1744 65.0555 79.3102 65.4845 79.3103C65.9135 79.3103 66.3314 79.1745 66.6785 78.9224C67.0255 78.6703 67.2838 78.3148 67.4164 77.9068C67.5489 77.4988 67.5489 77.0594 67.4163 76.6514L64.5839 67.9336ZM61.0022 65.5145C60.6552 65.7666 60.3969 66.1221 60.2643 66.53C60.1318 66.9379 60.1318 67.3774 60.2643 67.7853L61.6209 71.9611L58.0689 69.3804C57.7219 69.1282 57.304 68.9923 56.875 68.9923C56.4461 68.9923 56.0281 69.1282 55.6811 69.3804L52.1292 71.9611L53.4857 67.7853C53.6183 67.3773 53.6183 66.9379 53.4857 66.53C53.3531 66.1221 53.0948 65.7666 52.7478 65.5145L49.1958 62.9338H53.5864C54.0154 62.9338 54.4333 62.798 54.7804 62.5458C55.1274 62.2937 55.3857 61.9381 55.5182 61.5301L56.875 57.3546L58.2318 61.5301C58.3644 61.9381 58.6226 62.2937 58.9697 62.5458C59.3167 62.798 59.7347 62.9338 60.1636 62.9338H64.5542L61.0022 65.5145Z" fill="#ED8400"/>
<path d="M73.125 87.3438C74.2468 87.3438 75.1562 86.4343 75.1562 85.3125C75.1562 84.1907 74.2468 83.2812 73.125 83.2812C72.0032 83.2812 71.0938 84.1907 71.0938 85.3125C71.0938 86.4343 72.0032 87.3438 73.125 87.3438Z" fill="#ED8400"/>
<path d="M79.2188 79.2188C80.3406 79.2188 81.25 78.3093 81.25 77.1875C81.25 76.0657 80.3406 75.1562 79.2188 75.1562C78.0969 75.1562 77.1875 76.0657 77.1875 77.1875C77.1875 78.3093 78.0969 79.2188 79.2188 79.2188Z" fill="#ED8400"/>
<path d="M81.25 69.0625C82.3718 69.0625 83.2812 68.1531 83.2812 67.0312C83.2812 65.9094 82.3718 65 81.25 65C80.1282 65 79.2188 65.9094 79.2188 67.0312C79.2188 68.1531 80.1282 69.0625 81.25 69.0625Z" fill="#ED8400"/>
<path d="M79.2188 56.875C80.3406 56.875 81.25 55.9656 81.25 54.8438C81.25 53.7219 80.3406 52.8125 79.2188 52.8125C78.0969 52.8125 77.1875 53.7219 77.1875 54.8438C77.1875 55.9656 78.0969 56.875 79.2188 56.875Z" fill="#ED8400"/>
</svg>
