<svg width="131" height="130" viewBox="0 0 131 130" fill="none" xmlns="http://www.w3.org/2000/svg">
<path d="M28 0.544922C33.0324 0.544922 37.3029 3.87981 38.7148 8.45801L38.834 8.84277H99.2529C100.098 8.84278 100.782 9.52708 100.782 10.3721H101.327C100.798 10.3721 100.783 10.3724 100.782 10.373V104.691C100.782 105.172 100.561 105.601 100.212 105.883L100.189 105.9L100.168 105.921L77.248 128.842L77.2275 128.862L77.21 128.885C76.9298 129.232 76.5021 129.455 76.001 129.455H10.1191C9.27423 129.455 8.58999 128.771 8.58984 127.926V10.3721C8.58999 9.52716 9.27423 8.84291 10.1191 8.84277H17.168L17.2871 8.45898C18.7129 3.8464 23.0495 0.545009 28 0.544922ZM11.6494 126.396H74.4893V104.691C74.4893 103.846 75.1736 103.162 76.0186 103.162H97.7227V11.9023H39.2109V26.9678C39.2109 30.8609 36.0425 34.0291 32.1494 34.0293C28.2562 34.0293 25.0879 30.861 25.0879 26.9678V18.6699C25.088 17.8249 25.7722 17.1406 26.6172 17.1406C27.4622 17.1406 28.1473 17.8249 28.1475 18.6699V26.9678C28.1475 29.1752 29.942 30.9697 32.1494 30.9697C34.3567 30.9696 36.1514 29.1751 36.1514 26.9678V11.9023H11.6494V126.396ZM77.5488 124.214L95.541 106.222H77.5488V124.214ZM28 3.60449C24.8821 3.60457 22.1076 5.39899 20.7441 8.04883L20.335 8.84277H35.6631L35.2568 8.0498C33.9064 5.41561 31.1625 3.60449 28 3.60449Z" fill="#ED8400" stroke="#ED8400" stroke-width="1.08936"/>
<path d="M82.6572 95.5639C83.8031 95.5639 84.7317 94.6353 84.7317 93.4894C84.7317 92.3434 83.8031 91.4149 82.6572 91.4149H26.7152C25.5692 91.4149 24.6407 92.3434 24.6407 93.4894C24.6407 94.6353 25.5692 95.5639 26.7152 95.5639H82.6572Z" fill="#ED8400"/>
<path d="M26.7152 83.117H82.6572C83.8031 83.117 84.7317 82.1884 84.7317 81.0425C84.7317 79.8965 83.8031 78.968 82.6572 78.968H26.7152C25.5692 78.968 24.6407 79.8965 24.6407 81.0425C24.6407 82.1884 25.5692 83.117 26.7152 83.117Z" fill="#ED8400"/>
<path d="M26.7152 70.6702H82.6572C83.8031 70.6702 84.7317 69.7416 84.7317 68.5957C84.7317 67.4498 83.8031 66.5212 82.6572 66.5212H26.7152C25.5692 66.5212 24.6407 67.4498 24.6407 68.5957C24.6407 69.7416 25.5692 70.6702 26.7152 70.6702Z" fill="#ED8400"/>
<path d="M26.7152 58.2234H82.6572C83.8031 58.2234 84.7317 57.2949 84.7317 56.1489C84.7317 55.003 83.8031 54.0745 82.6572 54.0745H26.7152C25.5692 54.0745 24.6407 55.003 24.6407 56.1489C24.6407 57.2949 25.5692 58.2234 26.7152 58.2234Z" fill="#ED8400"/>
<path d="M26.7152 45.7766H82.6572C83.8031 45.7766 84.7317 44.8481 84.7317 43.7022C84.7317 42.5562 83.8031 41.6277 82.6572 41.6277H26.7152C25.5692 41.6277 24.6407 42.5562 24.6407 43.7022C24.6407 44.8481 25.5692 45.7766 26.7152 45.7766Z" fill="#ED8400"/>
<path d="M110.317 8.29785H107.551C106.405 8.29785 105.476 9.22638 105.476 10.3723C105.476 11.5183 106.405 12.4468 107.551 12.4468H108.242V125.851H86.0947C84.9487 125.851 84.0202 126.78 84.0202 127.926C84.0202 129.071 84.9487 130 86.0947 130H110.317C111.463 130 112.391 129.071 112.391 127.926V10.3723C112.391 9.22638 111.463 8.29785 110.317 8.29785Z" fill="#ED8400"/>
<path d="M121.381 8.29785H118.615C117.469 8.29785 116.54 9.22638 116.54 10.3723C116.54 11.5183 117.469 12.4468 118.615 12.4468H119.306V125.851H118.615C117.469 125.851 116.54 126.78 116.54 127.926C116.54 129.071 117.469 130 118.615 130H121.381C122.527 130 123.455 129.071 123.455 127.926V10.3723C123.455 9.22638 122.527 8.29785 121.381 8.29785Z" fill="#ED8400"/>
</svg>
