<svg width="130" height="130" viewBox="0 0 130 130" fill="none" xmlns="http://www.w3.org/2000/svg">
<mask id="path-1-inside-1_2439_82" fill="white">
<path d="M125.938 99.5312H121.875V69.0625C121.875 68.5238 121.661 68.0071 121.28 67.6262C120.899 67.2453 120.382 67.0312 119.844 67.0312H103.594V36.5625C103.594 36.0238 103.38 35.5071 102.999 35.1262C102.618 34.7453 102.101 34.5312 101.562 34.5312H28.4375C27.8988 34.5312 27.3821 34.7453 27.0012 35.1262C26.6203 35.5071 26.4062 36.0238 26.4062 36.5625V67.0312H10.1562C9.61753 67.0312 9.10087 67.2453 8.71994 67.6262C8.33901 68.0071 8.125 68.5238 8.125 69.0625V99.5312H4.0625C3.52378 99.5312 3.00712 99.7453 2.62619 100.126C2.24526 100.507 2.03125 101.024 2.03125 101.562V109.688C2.03125 110.226 2.24526 110.743 2.62619 111.124C3.00712 111.505 3.52378 111.719 4.0625 111.719H10.1562V115.781H4.0625C3.52378 115.781 3.00712 115.995 2.62619 116.376C2.24526 116.757 2.03125 117.274 2.03125 117.812V125.938C2.03125 126.476 2.24526 126.993 2.62619 127.374C3.00712 127.755 3.52378 127.969 4.0625 127.969H125.938C126.476 127.969 126.993 127.755 127.374 127.374C127.755 126.993 127.969 126.476 127.969 125.938V117.812C127.969 117.274 127.755 116.757 127.374 116.376C126.993 115.995 126.476 115.781 125.938 115.781H119.844V111.719H125.938C126.476 111.719 126.993 111.505 127.374 111.124C127.755 110.743 127.969 110.226 127.969 109.688V101.562C127.969 101.024 127.755 100.507 127.374 100.126C126.993 99.7453 126.476 99.5312 125.938 99.5312ZM117.812 99.5312H85.3125V71.0938H95.4688V81.25C95.4688 81.7887 95.6828 82.3054 96.0637 82.6863C96.4446 83.0672 96.9613 83.2812 97.5 83.2812H105.625C106.164 83.2812 106.68 83.0672 107.061 82.6863C107.442 82.3054 107.656 81.7887 107.656 81.25V71.0938H117.812V99.5312ZM58.9062 71.0938V81.25C58.9062 81.7887 59.1203 82.3054 59.5012 82.6863C59.8821 83.0672 60.3988 83.2812 60.9375 83.2812H69.0625C69.6012 83.2812 70.1179 83.0672 70.4988 82.6863C70.8797 82.3054 71.0938 81.7887 71.0938 81.25V71.0938H81.25V99.5312H48.75V71.0938H58.9062ZM62.9688 71.0938H67.0312V79.2188H62.9688V71.0938ZM99.5312 71.0938H103.594V79.2188H99.5312V71.0938ZM99.5312 67.0312H67.0312V38.5938H77.1875V48.75C77.1875 49.2887 77.4015 49.8054 77.7824 50.1863C78.1634 50.5672 78.68 50.7812 79.2188 50.7812H87.3438C87.8825 50.7812 88.3991 50.5672 88.7801 50.1863C89.161 49.8054 89.375 49.2887 89.375 48.75V38.5938H99.5312V67.0312ZM81.25 38.5938H85.3125V46.7188H81.25V38.5938ZM44.6875 38.5938H48.75V46.7188H44.6875V38.5938ZM30.4688 38.5938H40.625V48.75C40.625 49.2887 40.839 49.8054 41.2199 50.1863C41.6009 50.5672 42.1175 50.7812 42.6562 50.7812H50.7812C51.32 50.7812 51.8366 50.5672 52.2176 50.1863C52.5985 49.8054 52.8125 49.2887 52.8125 48.75V38.5938H62.9688V67.0312H30.4688V38.5938ZM26.4062 71.0938H30.4688V79.2188H26.4062V71.0938ZM12.1875 71.0938H22.3438V81.25C22.3438 81.7887 22.5578 82.3054 22.9387 82.6863C23.3196 83.0672 23.8363 83.2812 24.375 83.2812H32.5C33.0387 83.2812 33.5554 83.0672 33.9363 82.6863C34.3172 82.3054 34.5312 81.7887 34.5312 81.25V71.0938H44.6875V99.5312H12.1875V71.0938ZM14.2188 111.719H18.2812V115.781H14.2188V111.719ZM71.0938 115.781V111.719H107.656V115.781H71.0938ZM67.0312 115.781H62.9688V111.719H67.0312V115.781ZM58.9062 115.781H22.3438V111.719H58.9062V115.781ZM123.906 123.906H6.09375V119.844H123.906V123.906ZM115.781 115.781H111.719V111.719H115.781V115.781ZM123.906 107.656H6.09375V103.594H123.906V107.656Z"/>
</mask>
<path d="M125.938 99.5312H121.875V69.0625C121.875 68.5238 121.661 68.0071 121.28 67.6262C120.899 67.2453 120.382 67.0312 119.844 67.0312H103.594V36.5625C103.594 36.0238 103.38 35.5071 102.999 35.1262C102.618 34.7453 102.101 34.5312 101.562 34.5312H28.4375C27.8988 34.5312 27.3821 34.7453 27.0012 35.1262C26.6203 35.5071 26.4062 36.0238 26.4062 36.5625V67.0312H10.1562C9.61753 67.0312 9.10087 67.2453 8.71994 67.6262C8.33901 68.0071 8.125 68.5238 8.125 69.0625V99.5312H4.0625C3.52378 99.5312 3.00712 99.7453 2.62619 100.126C2.24526 100.507 2.03125 101.024 2.03125 101.562V109.688C2.03125 110.226 2.24526 110.743 2.62619 111.124C3.00712 111.505 3.52378 111.719 4.0625 111.719H10.1562V115.781H4.0625C3.52378 115.781 3.00712 115.995 2.62619 116.376C2.24526 116.757 2.03125 117.274 2.03125 117.812V125.938C2.03125 126.476 2.24526 126.993 2.62619 127.374C3.00712 127.755 3.52378 127.969 4.0625 127.969H125.938C126.476 127.969 126.993 127.755 127.374 127.374C127.755 126.993 127.969 126.476 127.969 125.938V117.812C127.969 117.274 127.755 116.757 127.374 116.376C126.993 115.995 126.476 115.781 125.938 115.781H119.844V111.719H125.938C126.476 111.719 126.993 111.505 127.374 111.124C127.755 110.743 127.969 110.226 127.969 109.688V101.562C127.969 101.024 127.755 100.507 127.374 100.126C126.993 99.7453 126.476 99.5312 125.938 99.5312ZM117.812 99.5312H85.3125V71.0938H95.4688V81.25C95.4688 81.7887 95.6828 82.3054 96.0637 82.6863C96.4446 83.0672 96.9613 83.2812 97.5 83.2812H105.625C106.164 83.2812 106.68 83.0672 107.061 82.6863C107.442 82.3054 107.656 81.7887 107.656 81.25V71.0938H117.812V99.5312ZM58.9062 71.0938V81.25C58.9062 81.7887 59.1203 82.3054 59.5012 82.6863C59.8821 83.0672 60.3988 83.2812 60.9375 83.2812H69.0625C69.6012 83.2812 70.1179 83.0672 70.4988 82.6863C70.8797 82.3054 71.0938 81.7887 71.0938 81.25V71.0938H81.25V99.5312H48.75V71.0938H58.9062ZM62.9688 71.0938H67.0312V79.2188H62.9688V71.0938ZM99.5312 71.0938H103.594V79.2188H99.5312V71.0938ZM99.5312 67.0312H67.0312V38.5938H77.1875V48.75C77.1875 49.2887 77.4015 49.8054 77.7824 50.1863C78.1634 50.5672 78.68 50.7812 79.2188 50.7812H87.3438C87.8825 50.7812 88.3991 50.5672 88.7801 50.1863C89.161 49.8054 89.375 49.2887 89.375 48.75V38.5938H99.5312V67.0312ZM81.25 38.5938H85.3125V46.7188H81.25V38.5938ZM44.6875 38.5938H48.75V46.7188H44.6875V38.5938ZM30.4688 38.5938H40.625V48.75C40.625 49.2887 40.839 49.8054 41.2199 50.1863C41.6009 50.5672 42.1175 50.7812 42.6562 50.7812H50.7812C51.32 50.7812 51.8366 50.5672 52.2176 50.1863C52.5985 49.8054 52.8125 49.2887 52.8125 48.75V38.5938H62.9688V67.0312H30.4688V38.5938ZM26.4062 71.0938H30.4688V79.2188H26.4062V71.0938ZM12.1875 71.0938H22.3438V81.25C22.3438 81.7887 22.5578 82.3054 22.9387 82.6863C23.3196 83.0672 23.8363 83.2812 24.375 83.2812H32.5C33.0387 83.2812 33.5554 83.0672 33.9363 82.6863C34.3172 82.3054 34.5312 81.7887 34.5312 81.25V71.0938H44.6875V99.5312H12.1875V71.0938ZM14.2188 111.719H18.2812V115.781H14.2188V111.719ZM71.0938 115.781V111.719H107.656V115.781H71.0938ZM67.0312 115.781H62.9688V111.719H67.0312V115.781ZM58.9062 115.781H22.3438V111.719H58.9062V115.781ZM123.906 123.906H6.09375V119.844H123.906V123.906ZM115.781 115.781H111.719V111.719H115.781V115.781ZM123.906 107.656H6.09375V103.594H123.906V107.656Z" fill="#ED8400" stroke="#ED8400" stroke-width="16" mask="url(#path-1-inside-1_2439_82)"/>
<path d="M69.0625 91.4062H73.125V97.5H69.0625V91.4062Z" fill="#ED8400"/>
<path d="M75.1562 91.4062H79.2188V97.5H75.1562V91.4062Z" fill="#ED8400"/>
<path d="M87.3438 58.9062H91.4062V65H87.3438V58.9062Z" fill="#ED8400"/>
<path d="M93.4375 58.9062H97.5V65H93.4375V58.9062Z" fill="#ED8400"/>
<path d="M105.625 91.4062H109.688V97.5H105.625V91.4062Z" fill="#ED8400"/>
<path d="M111.719 91.4062H115.781V97.5H111.719V91.4062Z" fill="#ED8400"/>
<path d="M32.5 91.4062H36.5625V97.5H32.5V91.4062Z" fill="#ED8400"/>
<path d="M38.5938 91.4062H42.6562V97.5H38.5938V91.4062Z" fill="#ED8400"/>
<path d="M50.7812 58.9062H54.8438V65H50.7812V58.9062Z" fill="#ED8400"/>
<path d="M56.875 58.9062H60.9375V65H56.875V58.9062Z" fill="#ED8400"/>
<path d="M63.5639 27.8423C63.9448 28.2231 64.4614 28.4371 65 28.4371C65.5386 28.4371 66.0552 28.2231 66.4361 27.8423L76.5923 17.6861C76.8763 17.402 77.0697 17.0401 77.1481 16.6462C77.2264 16.2522 77.1862 15.8438 77.0325 15.4727C76.8788 15.1016 76.6185 14.7844 76.2845 14.5612C75.9506 14.338 75.5579 14.2188 75.1562 14.2188H71.0937V4.0625C71.0937 3.52378 70.8797 3.00712 70.4988 2.62619C70.1179 2.24526 69.6012 2.03125 69.0625 2.03125H60.9375C60.3988 2.03125 59.8821 2.24526 59.5012 2.62619C59.1202 3.00712 58.9062 3.52378 58.9062 4.0625V14.2188H54.8437C54.4421 14.2188 54.0494 14.338 53.7155 14.5612C53.3815 14.7844 53.1212 15.1016 52.9675 15.4727C52.8138 15.8438 52.7736 16.2522 52.8519 16.6462C52.9303 17.0401 53.1237 17.402 53.4076 17.6861L63.5639 27.8423ZM60.9375 18.2812C61.4762 18.2812 61.9929 18.0672 62.3738 17.6863C62.7547 17.3054 62.9687 16.7887 62.9687 16.25V6.09375H67.0312V16.25C67.0312 16.7887 67.2452 17.3054 67.6262 17.6863C68.0071 18.0672 68.5238 18.2812 69.0625 18.2812H70.2528L65 23.5341L59.7472 18.2812H60.9375Z" fill="#ED8400"/>
<path d="M114.345 40.0298C114.726 40.4106 115.243 40.6246 115.781 40.6246C116.32 40.6246 116.836 40.4106 117.217 40.0298L127.374 29.8736C127.658 29.5895 127.851 29.2276 127.929 28.8337C128.008 28.4397 127.967 28.0313 127.814 27.6602C127.66 27.2891 127.4 26.9719 127.066 26.7487C126.732 26.5255 126.339 26.4063 125.937 26.4062H121.875V16.25C121.875 15.7113 121.661 15.1946 121.28 14.8137C120.899 14.4328 120.382 14.2188 119.844 14.2188H111.719C111.18 14.2188 110.663 14.4328 110.282 14.8137C109.902 15.1946 109.687 15.7113 109.687 16.25V26.4062H105.625C105.223 26.4063 104.831 26.5255 104.497 26.7487C104.163 26.9719 103.902 27.2891 103.749 27.6602C103.595 28.0313 103.555 28.4397 103.633 28.8337C103.712 29.2276 103.905 29.5895 104.189 29.8736L114.345 40.0298ZM111.719 30.4688C112.257 30.4688 112.774 30.2547 113.155 29.8738C113.536 29.4929 113.75 28.9762 113.75 28.4375V18.2812H117.812V28.4375C117.812 28.9762 118.027 29.4929 118.407 29.8738C118.788 30.2547 119.305 30.4688 119.844 30.4688H121.034L115.781 35.7216L110.528 30.4688H111.719Z" fill="#ED8400"/>
<path d="M12.7827 40.0298C13.1636 40.4106 13.6801 40.6246 14.2187 40.6246C14.7574 40.6246 15.2739 40.4106 15.6548 40.0298L25.8111 29.8736C26.0951 29.5895 26.2885 29.2276 26.3668 28.8337C26.4451 28.4397 26.4049 28.0313 26.2512 27.6602C26.0975 27.2891 25.8372 26.9719 25.5033 26.7487C25.1693 26.5255 24.7767 26.4063 24.375 26.4062H20.3125V16.25C20.3125 15.7113 20.0985 15.1946 19.7176 14.8137C19.3366 14.4328 18.82 14.2188 18.2812 14.2188H10.1562C9.61752 14.2188 9.10087 14.4328 8.71993 14.8137C8.339 15.1946 8.12499 15.7113 8.12499 16.25V26.4062H4.06249C3.66081 26.4063 3.26818 26.5255 2.93422 26.7487C2.60026 26.9719 2.33998 27.2891 2.18627 27.6602C2.03257 28.0313 1.99234 28.4397 2.07068 28.8337C2.14902 29.2276 2.34241 29.5895 2.6264 29.8736L12.7827 40.0298ZM10.1562 30.4688C10.695 30.4688 11.2116 30.2547 11.5926 29.8738C11.9735 29.4929 12.1875 28.9762 12.1875 28.4375V18.2812H16.25V28.4375C16.25 28.9762 16.464 29.4929 16.8449 29.8738C17.2259 30.2547 17.7425 30.4688 18.2812 30.4688H19.4716L14.2187 35.7216L8.96593 30.4688H10.1562Z" fill="#ED8400"/>
<path d="M8.125 2.03125H12.1875V12.1875H8.125V2.03125Z" fill="#ED8400"/>
<path d="M16.25 6.09375H20.3125V12.1875H16.25V6.09375Z" fill="#ED8400"/>
<path d="M117.812 2.03125H121.875V12.1875H117.812V2.03125Z" fill="#ED8400"/>
<path d="M109.688 6.09375H113.75V12.1875H109.688V6.09375Z" fill="#ED8400"/>
</svg>
