<svg width="50" height="50" viewBox="0 0 50 50" fill="none" xmlns="http://www.w3.org/2000/svg">
<g clip-path="url(#clip0_2439_219)">
<path d="M23.3871 44.3548C23.8325 44.3548 24.1936 43.9938 24.1936 43.5484C24.1936 43.103 23.8325 42.7419 23.3871 42.7419C22.9417 42.7419 22.5807 43.103 22.5807 43.5484C22.5807 43.9938 22.9417 44.3548 23.3871 44.3548Z" fill="#FAFBFB"/>
<path d="M45.9678 44.3548C46.4131 44.3548 46.7742 43.9938 46.7742 43.5484C46.7742 43.103 46.4131 42.7419 45.9678 42.7419C45.5224 42.7419 45.1613 43.103 45.1613 43.5484C45.1613 43.9938 45.5224 44.3548 45.9678 44.3548Z" fill="#FAFBFB"/>
<path d="M43.5484 37.0968H41.9355V35.4839H46.7742C47.6638 35.4839 48.3871 34.7605 48.3871 33.871V27.4193C48.3871 26.5298 47.6638 25.8064 46.7742 25.8064H45.1613V24.1936C45.1613 23.304 44.438 22.5807 43.5484 22.5807H38.7098C38.7098 21.6911 37.9863 20.9678 37.0969 20.9678V17.742C37.0969 15.963 35.6501 14.5162 33.8711 14.5162C32.0921 14.5162 30.6453 15.963 30.6453 17.742H25.559C25.0598 16.4032 24.4066 15.1412 23.6065 13.9888L23.9485 12.9638C24.1105 12.4767 24.1936 11.9686 24.1936 11.4525C24.1936 9.56537 23.08 7.85169 21.3558 7.08558L9.67752 1.89529V1.61306C9.67744 0.723427 8.95401 0 8.06455 0C3.61773 0 0 3.61773 0 8.06455V9.221V12.9032C0 13.7928 0.723427 14.5161 1.61289 14.5161V27.4588C0.694379 27.6395 0 28.4492 0 29.4201C0 29.8725 0.15484 30.3161 0.437913 30.6701L2.1105 32.7613C0.750791 34.5298 0 36.7 0 38.9404C0 41.0686 0.654048 43.1089 1.89032 44.8404L2.19116 45.2605C3.58876 47.2186 5.85974 48.3871 8.26452 48.3871C9.86933 48.3871 11.4605 47.8573 12.7427 46.8935L13.8694 46.0483C14.2742 45.7467 14.5162 45.2637 14.5162 44.758V43.5484C14.5162 42.6588 13.7928 41.9355 12.9033 41.9355H11.9589L9.67752 29.7637V13.1169C12.2719 14.3225 14.5292 16.1459 16.2557 18.4476L19.4557 22.7145L17.7735 32.8105C17.7534 32.9347 17.742 33.0605 17.742 33.188C17.742 34.4541 18.7718 35.484 20.038 35.484H24.1936V37.0969H22.5807C19.0235 37.0969 16.1291 39.9912 16.1291 43.5485C16.1291 47.1058 19.0235 50.0002 22.5807 50.0002H43.5485C47.1058 50.0002 50.0002 47.1058 50.0002 43.5485C50.0002 39.9912 47.1056 37.0968 43.5484 37.0968ZM25.8064 43.5484C25.8064 44.8823 24.721 45.9678 23.3871 45.9678C22.0532 45.9678 20.9678 44.8823 20.9678 43.5484C20.9678 42.2146 22.0532 41.1291 23.3871 41.1291C24.721 41.129 25.8064 42.2146 25.8064 43.5484ZM41.9355 43.5484H27.4193C27.4193 42.9742 27.2951 42.4307 27.0774 41.9355H41.9355V43.5484ZM31.1073 45.1613C30.8686 45.6444 30.3896 45.9678 29.8388 45.9678C29.2879 45.9678 28.8089 45.6444 28.5702 45.1613H31.1073ZM35.946 45.1613C35.7073 45.6444 35.2283 45.9678 34.6774 45.9678C34.1266 45.9678 33.6476 45.6444 33.4089 45.1613H35.946ZM40.7847 45.1613C40.546 45.6444 40.067 45.9678 39.5162 45.9678C38.9654 45.9678 38.4864 45.6444 38.2477 45.1613H40.7847ZM44.1145 33.871L46.7741 31.5912V33.871H44.1145ZM46.7742 29.4685L41.6379 33.871H33.871V27.4193H46.7742V29.4685ZM32.2581 20.9678H21.3814L21.65 19.3549H32.2581V20.9678ZM32.2581 30.6452H27.4194V27.4194H32.2581V30.6452ZM21.1129 22.5807H25.8064V29.0323H20.0379L21.1129 22.5807ZM27.4193 32.2581H32.258V33.871H27.4193V32.2581ZM32.2581 25.8064H27.4194V22.5807H32.2581V25.8064ZM37.0968 22.5807V25.8064H33.871V22.5807H37.0968ZM43.5484 24.1936V25.8064H38.7098V24.1936H43.5484ZM33.871 16.129C34.7605 16.129 35.4839 16.8524 35.4839 17.7419V20.9677H33.871V19.3548C33.871 18.4652 33.1476 17.7419 32.2581 17.7419C32.2581 16.8524 32.9814 16.129 33.871 16.129ZM22.5807 11.4524C22.5807 11.7936 22.5266 12.1299 22.4186 12.4524L22.4113 12.4734C20.6186 10.425 18.3557 8.81374 15.8145 7.7968L16.2928 6.60085L20.7009 8.55971C21.8428 9.06692 22.5807 10.2024 22.5807 11.4524ZM14.8177 5.9452L14.2903 7.26374C13.4701 7.0226 12.629 6.83795 11.7693 6.72344L9.93466 6.47826C9.84676 6.46698 9.76366 6.47666 9.67744 6.47262V3.6605L14.8177 5.9452ZM1.61289 8.06455C1.61289 4.50727 4.50727 1.61289 8.06455 1.61289V6.83551C7.1137 7.35973 6.45165 8.36774 6.45165 9.52664V9.71777C6.45165 10.8501 7.08634 11.8863 8.06455 12.4186V29.0322H6.41612L5.66373 12.4911C5.63872 11.9508 5.34681 11.462 4.88229 11.1822L1.61298 9.22092V8.06455H1.61289ZM1.61289 12.9032V11.1016L4.05244 12.5653L4.06776 12.9032H1.61289ZM4.1411 14.5161L4.72737 27.4193H3.22578V14.5161H4.1411ZM1.61289 29.4194C1.61289 29.2064 1.7871 29.0323 1.99995 29.0323H4.80079L4.82495 29.5565L3.16365 31.4944L1.69751 29.6622C1.64278 29.5936 1.61289 29.5073 1.61289 29.4194ZM3.50406 44.3242L3.20322 43.9032C2.16287 42.4468 1.61289 40.7307 1.61289 38.9404C1.61289 36.904 2.34272 34.9299 3.6685 33.3832L5.81445 30.88L8.57411 46.7485C8.47088 46.755 8.3685 46.7743 8.26443 46.7743C6.37908 46.7742 4.59922 45.8581 3.50406 44.3242ZM11.9597 43.5484H12.9032V44.7581L11.775 45.604C11.2854 45.9718 10.7379 46.2548 10.1605 46.4533L7.4105 30.6452H8.20162L10.3742 42.2331C10.5177 42.9952 11.1839 43.5484 11.9597 43.5484ZM17.546 17.4806C15.3661 14.5742 12.4153 12.3629 9.01371 11.0871C8.44596 10.8741 8.06455 10.3242 8.06455 9.71853V9.5274C8.06455 8.65646 8.83875 7.96124 9.72097 8.07743L11.5565 8.32261C17.0186 9.05084 21.7258 12.6992 23.8355 17.742H21.65C20.8597 17.742 20.1904 18.3081 20.0589 19.0904L19.8209 20.5162L17.546 17.4806ZM19.3549 33.1879C19.3549 33.15 19.3581 33.1121 19.3646 33.075L19.7694 30.6451H25.8064V33.8709H20.0379C19.6613 33.871 19.3549 33.5645 19.3549 33.1879ZM25.8064 35.4839H40.3226V37.0968H25.8064V35.4839ZM17.7419 43.5484C17.7419 40.8799 19.9121 38.7098 22.5806 38.7098H41.9355V40.3226H25.7814C25.1096 39.8227 24.2863 39.5162 23.3871 39.5162C21.1637 39.5162 19.3549 41.3251 19.3549 43.5484C19.3549 45.7718 21.1638 47.5807 23.3871 47.5807C24.9258 47.5807 26.2492 46.7048 26.9291 45.4347L26.9509 45.4992C27.3662 46.7444 28.5267 47.5807 29.8388 47.5807C30.8081 47.5807 31.6936 47.1218 32.2581 46.3807C32.8226 47.1218 33.7081 47.5807 34.6774 47.5807C35.6468 47.5807 36.5323 47.1218 37.0968 46.3807C37.6613 47.1218 38.5467 47.5807 39.5161 47.5807C40.4855 47.5807 41.371 47.1218 41.9355 46.3807V48.3871H22.5807C19.9121 48.3871 17.7419 46.2169 17.7419 43.5484ZM43.5484 48.3871V38.7097C46.217 38.7097 48.3871 40.8799 48.3871 43.5484C48.3871 46.2168 46.2169 48.3871 43.5484 48.3871Z" fill="#FAFBFB"/>
</g>
<defs>
<clipPath id="clip0_2439_219">
<rect width="50" height="50" fill="white"/>
</clipPath>
</defs>
</svg>
