<svg width="50" height="50" viewBox="0 0 50 50" fill="none" xmlns="http://www.w3.org/2000/svg">
<path d="M7.03125 49.2188H42.9688C44.0044 49.2175 44.9972 48.8056 45.7295 48.0733C46.4618 47.341 46.8738 46.3481 46.875 45.3125V20.3125C46.8738 19.2769 46.4618 18.284 45.7295 17.5517C44.9972 16.8194 44.0044 16.4075 42.9688 16.4062H40.625V4.6875C40.6238 3.65188 40.2118 2.65903 39.4795 1.92673C38.7472 1.19444 37.7544 0.782491 36.7188 0.78125H7.03125C5.99563 0.782491 5.00278 1.19444 4.27048 1.92673C3.53819 2.65903 3.12624 3.65188 3.125 4.6875V45.3125C3.12624 46.3481 3.53819 47.341 4.27048 48.0733C5.00278 48.8056 5.99563 49.2175 7.03125 49.2188ZM23.4375 20.3125V21.0938H16.4062V22.6562H23.4375V24.2188H10.1562V25.7812H23.4375V27.3438H10.1562V28.9062H23.4375V30.4688H10.1562V32.0312H23.4375V33.5938H10.1562V35.1562H23.4375V36.7188H11.7188V38.2812H23.4375V44.5312H14.0625V39.8438C14.0625 39.6366 13.9802 39.4378 13.8337 39.2913C13.6872 39.1448 13.4885 39.0625 13.2812 39.0625H8.59375V5.46875H14.0625C14.0625 6.29755 14.3917 7.09241 14.9778 7.67846C15.5638 8.26451 16.3587 8.59375 17.1875 8.59375H26.5625C27.3913 8.59375 28.1862 8.26451 28.7722 7.67846C29.3583 7.09241 29.6875 6.29755 29.6875 5.46875H35.1562V16.4062H33.5938V10.9375C33.5938 10.7303 33.5114 10.5316 33.3649 10.3851C33.2184 10.2386 33.0197 10.1562 32.8125 10.1562H10.9375C10.7303 10.1562 10.5316 10.2386 10.3851 10.3851C10.2386 10.5316 10.1562 10.7303 10.1562 10.9375V18.75C10.1562 18.9572 10.2386 19.1559 10.3851 19.3024C10.5316 19.4489 10.7303 19.5312 10.9375 19.5312H23.5156C23.4634 19.7884 23.4372 20.0501 23.4375 20.3125ZM12.5 43.4266L9.69844 40.625H12.5V43.4266ZM15.625 2.34375H28.125V5.46875C28.125 5.88315 27.9604 6.28058 27.6674 6.5736C27.3743 6.86663 26.9769 7.03125 26.5625 7.03125H17.1875C16.7731 7.03125 16.3757 6.86663 16.0826 6.5736C15.7896 6.28058 15.625 5.88315 15.625 5.46875V2.34375ZM24.2391 17.9688H11.7188V11.7188H32.0312V16.4062H27.3438C26.7405 16.408 26.146 16.5501 25.6071 16.8213C25.0683 17.0925 24.5999 17.4853 24.2391 17.9688ZM45.3125 20.3125V45.3125C45.3125 45.9341 45.0656 46.5302 44.626 46.9698C44.1865 47.4093 43.5904 47.6562 42.9688 47.6562H27.3438C26.7221 47.6562 26.126 47.4093 25.6865 46.9698C25.2469 46.5302 25 45.9341 25 45.3125V20.3125C25 19.6909 25.2469 19.0948 25.6865 18.6552C26.126 18.2157 26.7221 17.9688 27.3438 17.9688H42.9688C43.5904 17.9688 44.1865 18.2157 44.626 18.6552C45.0656 19.0948 45.3125 19.6909 45.3125 20.3125ZM39.0625 4.6875V16.4062H36.7188V4.6875C36.7188 4.4803 36.6364 4.28159 36.4899 4.13507C36.3434 3.98856 36.1447 3.90625 35.9375 3.90625H29.6875V2.34375H36.7188C37.3404 2.34375 37.9365 2.59068 38.376 3.03022C38.8156 3.46976 39.0625 4.0659 39.0625 4.6875ZM4.6875 4.6875C4.6875 4.0659 4.93443 3.46976 5.37397 3.03022C5.81351 2.59068 6.40965 2.34375 7.03125 2.34375H14.0625V3.90625H7.8125C7.6053 3.90625 7.40659 3.98856 7.26007 4.13507C7.11356 4.28159 7.03125 4.4803 7.03125 4.6875V39.8438C7.03129 40.0509 7.11363 40.2496 7.26016 40.3961L12.7289 45.8648C12.8754 46.0114 13.0741 46.0937 13.2812 46.0938H23.5156C23.6362 46.6622 23.8831 47.1963 24.2383 47.6562H7.03125C6.40965 47.6562 5.81351 47.4093 5.37397 46.9698C4.93443 46.5302 4.6875 45.9341 4.6875 45.3125V4.6875Z" fill="#FAFBFB"/>
<path d="M17.1875 3.90625H18.75V5.46875H17.1875V3.90625Z" fill="#FAFBFB"/>
<path d="M25 3.90625H26.5625V5.46875H25V3.90625Z" fill="#FAFBFB"/>
<path d="M26.5625 20.3125V26.5625C26.5625 26.7697 26.6448 26.9684 26.7913 27.1149C26.9378 27.2614 27.1365 27.3438 27.3438 27.3438H42.9688C43.176 27.3438 43.3747 27.2614 43.5212 27.1149C43.6677 26.9684 43.75 26.7697 43.75 26.5625V20.3125C43.75 20.1053 43.6677 19.9066 43.5212 19.7601C43.3747 19.6136 43.176 19.5312 42.9688 19.5312H27.3438C27.1365 19.5312 26.9378 19.6136 26.7913 19.7601C26.6448 19.9066 26.5625 20.1053 26.5625 20.3125ZM28.125 21.0938H42.1875V25.7812H28.125V21.0938Z" fill="#FAFBFB"/>
<path d="M42.9688 38.2812H39.8438C39.6365 38.2812 39.4378 38.3636 39.2913 38.5101C39.1448 38.6566 39.0625 38.8553 39.0625 39.0625V45.3125C39.0625 45.5197 39.1448 45.7184 39.2913 45.8649C39.4378 46.0114 39.6365 46.0938 39.8438 46.0938H42.9688C43.176 46.0938 43.3747 46.0114 43.5212 45.8649C43.6677 45.7184 43.75 45.5197 43.75 45.3125V39.0625C43.75 38.8553 43.6677 38.6566 43.5212 38.5101C43.3747 38.3636 43.176 38.2812 42.9688 38.2812ZM42.1875 44.5312H40.625V39.8438H42.1875V44.5312Z" fill="#FAFBFB"/>
<path d="M42.9688 28.9062H39.8438C39.6365 28.9062 39.4378 28.9886 39.2913 29.1351C39.1448 29.2816 39.0625 29.4803 39.0625 29.6875V35.9375C39.0625 36.1447 39.1448 36.3434 39.2913 36.4899C39.4378 36.6364 39.6365 36.7188 39.8438 36.7188H42.9688C43.176 36.7188 43.3747 36.6364 43.5212 36.4899C43.6677 36.3434 43.75 36.1447 43.75 35.9375V29.6875C43.75 29.4803 43.6677 29.2816 43.5212 29.1351C43.3747 28.9886 43.176 28.9062 42.9688 28.9062ZM42.1875 35.1562H40.625V30.4688H42.1875V35.1562Z" fill="#FAFBFB"/>
<path d="M30.4688 28.9062H27.3438C27.1365 28.9062 26.9378 28.9886 26.7913 29.1351C26.6448 29.2816 26.5625 29.4803 26.5625 29.6875V32.8125C26.5625 33.0197 26.6448 33.2184 26.7913 33.3649C26.9378 33.5114 27.1365 33.5938 27.3438 33.5938H30.4688C30.676 33.5938 30.8747 33.5114 31.0212 33.3649C31.1677 33.2184 31.25 33.0197 31.25 32.8125V29.6875C31.25 29.4803 31.1677 29.2816 31.0212 29.1351C30.8747 28.9886 30.676 28.9062 30.4688 28.9062ZM29.6875 32.0312H28.125V30.4688H29.6875V32.0312Z" fill="#ED8400"/>
<path d="M36.7188 28.9062H33.5938C33.3865 28.9062 33.1878 28.9886 33.0413 29.1351C32.8948 29.2816 32.8125 29.4803 32.8125 29.6875V32.8125C32.8125 33.0197 32.8948 33.2184 33.0413 33.3649C33.1878 33.5114 33.3865 33.5938 33.5938 33.5938H36.7188C36.926 33.5938 37.1247 33.5114 37.2712 33.3649C37.4177 33.2184 37.5 33.0197 37.5 32.8125V29.6875C37.5 29.4803 37.4177 29.2816 37.2712 29.1351C37.1247 28.9886 36.926 28.9062 36.7188 28.9062ZM35.9375 32.0312H34.375V30.4688H35.9375V32.0312Z" fill="#ED8400"/>
<path d="M30.4688 35.1562H27.3438C27.1365 35.1562 26.9378 35.2386 26.7913 35.3851C26.6448 35.5316 26.5625 35.7303 26.5625 35.9375V39.0625C26.5625 39.2697 26.6448 39.4684 26.7913 39.6149C26.9378 39.7614 27.1365 39.8438 27.3438 39.8438H30.4688C30.676 39.8438 30.8747 39.7614 31.0212 39.6149C31.1677 39.4684 31.25 39.2697 31.25 39.0625V35.9375C31.25 35.7303 31.1677 35.5316 31.0212 35.3851C30.8747 35.2386 30.676 35.1562 30.4688 35.1562ZM29.6875 38.2812H28.125V36.7188H29.6875V38.2812Z" fill="#ED8400"/>
<path d="M36.7188 35.1562H33.5938C33.3865 35.1562 33.1878 35.2386 33.0413 35.3851C32.8948 35.5316 32.8125 35.7303 32.8125 35.9375V39.0625C32.8125 39.2697 32.8948 39.4684 33.0413 39.6149C33.1878 39.7614 33.3865 39.8438 33.5938 39.8438H36.7188C36.926 39.8438 37.1247 39.7614 37.2712 39.6149C37.4177 39.4684 37.5 39.2697 37.5 39.0625V35.9375C37.5 35.7303 37.4177 35.5316 37.2712 35.3851C37.1247 35.2386 36.926 35.1562 36.7188 35.1562ZM35.9375 38.2812H34.375V36.7188H35.9375V38.2812Z" fill="#ED8400"/>
<path d="M30.4688 41.4062H27.3438C27.1365 41.4062 26.9378 41.4886 26.7913 41.6351C26.6448 41.7816 26.5625 41.9803 26.5625 42.1875V45.3125C26.5625 45.5197 26.6448 45.7184 26.7913 45.8649C26.9378 46.0114 27.1365 46.0938 27.3438 46.0938H30.4688C30.676 46.0938 30.8747 46.0114 31.0212 45.8649C31.1677 45.7184 31.25 45.5197 31.25 45.3125V42.1875C31.25 41.9803 31.1677 41.7816 31.0212 41.6351C30.8747 41.4886 30.676 41.4062 30.4688 41.4062ZM29.6875 44.5312H28.125V42.9688H29.6875V44.5312Z" fill="#ED8400"/>
<path d="M36.7188 41.4062H33.5938C33.3865 41.4062 33.1878 41.4886 33.0413 41.6351C32.8948 41.7816 32.8125 41.9803 32.8125 42.1875V45.3125C32.8125 45.5197 32.8948 45.7184 33.0413 45.8649C33.1878 46.0114 33.3865 46.0938 33.5938 46.0938H36.7188C36.926 46.0938 37.1247 46.0114 37.2712 45.8649C37.4177 45.7184 37.5 45.5197 37.5 45.3125V42.1875C37.5 41.9803 37.4177 41.7816 37.2712 41.6351C37.1247 41.4886 36.926 41.4062 36.7188 41.4062ZM35.9375 44.5312H34.375V42.9688H35.9375V44.5312Z" fill="#ED8400"/>
</svg>
