<svg width="50" height="50" viewBox="0 0 50 50" fill="none" xmlns="http://www.w3.org/2000/svg">
<path d="M45.8333 0H10.8333C8.53312 0.00284831 6.66951 1.86646 6.66667 4.16667V36.6667H0.833333C0.373128 36.6667 0 37.0398 0 37.5V39.1667C0.00284831 41.4669 1.86646 43.3305 4.16667 43.3333H30.0199V47.5C30.0199 47.8158 30.1982 48.1043 30.4805 48.2454C30.7629 48.3866 31.1007 48.3561 31.3534 48.1665L34.1866 46.0417L37.0199 48.1665C37.1639 48.2752 37.3397 48.3337 37.5199 48.3333C37.6493 48.3346 37.7771 48.3061 37.8935 48.2499C38.1771 48.1079 38.3553 47.817 38.3533 47.5V43.3333H39.1667C41.4669 43.3305 43.3305 41.4669 43.3333 39.1667V6.66667H49.1667C49.6269 6.66667 50 6.29354 50 5.83333V4.16667C49.9972 1.86646 48.1335 0.00284831 45.8333 0ZM30.0199 41.6667H4.16667C2.78605 41.6667 1.66667 40.5473 1.66667 39.1667V38.3333H30.0199V41.6667ZM36.6866 45.8333L34.6867 44.3335C34.3905 44.1109 33.9832 44.1109 33.6865 44.3335L31.6866 45.8333V36.5259C31.8477 36.5385 32.0097 36.5356 32.17 36.5165C32.651 37.137 33.3919 37.5 34.1768 37.5C34.9618 37.5 35.7023 37.137 36.1833 36.5165C36.3493 36.5365 36.5169 36.5397 36.6833 36.5259L36.6866 45.8333ZM37.7584 32.4833C37.5362 32.5623 37.3576 32.7319 37.2677 32.9496C37.1773 33.1677 37.1834 33.4135 37.2852 33.6267C37.4426 33.9571 37.3759 34.351 37.1179 34.6106C36.8595 34.8702 36.4661 34.9394 36.1348 34.7835C35.922 34.6818 35.6759 34.6753 35.4578 34.7652C35.2393 34.8556 35.07 35.0342 34.9906 35.2568C34.869 35.6018 34.5426 35.8329 34.1768 35.8329C33.8106 35.8329 33.4843 35.6018 33.3626 35.2568C33.2837 35.0342 33.114 34.8556 32.8959 34.7652C32.6774 34.6753 32.4312 34.6818 32.2184 34.7835C31.8872 34.9394 31.4937 34.8702 31.2358 34.6106C30.9774 34.351 30.9106 33.9571 31.0685 33.6267C31.1698 33.4139 31.1763 33.1677 31.086 32.95C30.9961 32.7319 30.8179 32.5627 30.5957 32.4833C30.2502 32.3604 30.0191 32.0333 30.0191 31.6667C30.0191 31.3001 30.2502 30.9729 30.5957 30.85C30.8179 30.7707 30.9957 30.6014 31.0856 30.3837C31.1759 30.166 31.1694 29.9202 31.0685 29.7074C30.9098 29.377 30.9766 28.9827 31.2349 28.7227C31.4929 28.4631 31.8868 28.3936 32.2184 28.5498C32.4312 28.6515 32.6774 28.658 32.8959 28.5681C33.114 28.4778 33.2837 28.2992 33.3626 28.0766C33.4843 27.7315 33.8106 27.5004 34.1768 27.5004C34.5426 27.5004 34.869 27.7315 34.9906 28.0766C35.07 28.2992 35.2393 28.4778 35.4578 28.5681C35.6759 28.658 35.922 28.6515 36.1348 28.5498C36.4661 28.394 36.8595 28.4631 37.1179 28.7227C37.3759 28.9823 37.4426 29.3762 37.2852 29.7066C37.1834 29.9198 37.1773 30.1656 37.2677 30.3837C37.3576 30.6014 37.5362 30.7711 37.7584 30.85C38.103 30.9737 38.3333 31.3005 38.3333 31.6667C38.3333 32.0329 38.103 32.3596 37.7584 32.4833ZM42.4357 1.77083C42.3885 1.83757 42.3466 1.90837 42.3035 1.97835C42.2144 2.12077 42.1346 2.26807 42.0634 2.41984C42.026 2.50326 41.991 2.58016 41.9584 2.66154C41.8966 2.82511 41.8445 2.99194 41.8034 3.16162C41.7843 3.23934 41.7598 3.31421 41.7452 3.39315C41.6947 3.64827 41.6687 3.90706 41.6667 4.16667V39.1667C41.6667 40.5473 40.5473 41.6667 39.1667 41.6667C38.8888 41.6614 38.6141 41.6097 38.3533 41.5133V35.7166C38.8717 35.1713 39.1162 34.4214 39.0202 33.6751C39.6395 33.193 40.0016 32.4516 40.0016 31.6667C40.0016 30.8818 39.6395 30.1404 39.0202 29.6582C39.1187 28.8802 38.8521 28.1002 38.2983 27.5444C37.7445 26.9889 36.9653 26.7204 36.1865 26.8168C35.7056 26.1963 34.965 25.8333 34.1801 25.8333C33.3952 25.8333 32.6542 26.1963 32.1733 26.8168C31.3949 26.7208 30.6156 26.9893 30.0618 27.5448C29.5085 28.1002 29.2419 28.8802 29.34 29.6582C28.7207 30.1404 28.3582 30.8818 28.3582 31.6667C28.3582 32.4516 28.7207 33.193 29.34 33.6751C29.2415 34.432 29.4938 35.1925 30.0248 35.741V36.6667H8.33333V4.16667C8.33333 2.78605 9.45272 1.66667 10.8333 1.66667H42.5C42.4768 1.69922 42.4593 1.73665 42.4357 1.77083ZM48.3333 5H43.3333V4.16667C43.3333 2.78605 44.4527 1.66667 45.8333 1.66667C47.2139 1.66667 48.3333 2.78605 48.3333 4.16667V5Z" fill="#FAFBFB"/>
<path d="M27.5 6.66675H30.8333V8.33341H27.5V6.66675Z" fill="#FAFBFB"/>
<path d="M19.1667 6.66675H25.8333V8.33341H19.1667V6.66675Z" fill="#FAFBFB"/>
<path d="M16.6667 10.8333H33.3333V12.4999H16.6667V10.8333Z" fill="#FAFBFB"/>
<path d="M12.5 15.8333H16.6667V17.4999H12.5V15.8333Z" fill="#FAFBFB"/>
<path d="M12.5 20H21.6667V21.6667H12.5V20Z" fill="#FAFBFB"/>
<path d="M18.3333 15.8333H37.5V17.4999H18.3333V15.8333Z" fill="#FAFBFB"/>
<path d="M23.3333 20H37.5V21.6667H23.3333V20Z" fill="#FAFBFB"/>
<path d="M12.5 24.1667H29.1667V25.8334H12.5V24.1667Z" fill="#FAFBFB"/>
<path d="M12.5 28.3333H26.6667V29.9999H12.5V28.3333Z" fill="#FAFBFB"/>
</svg>
