<svg width="50" height="50" viewBox="0 0 50 50" fill="none" xmlns="http://www.w3.org/2000/svg">
<path d="M24.9023 15.6846C26.3789 15.6846 27.7939 14.9404 28.8867 13.5898C29.8848 12.3564 30.457 10.8008 30.457 9.32031C30.457 6.33789 28.0693 4.08887 24.9023 4.08887C21.7354 4.08887 19.3477 6.33496 19.3477 9.32031C19.3477 10.8008 19.9199 12.3564 20.918 13.5898C22.0107 14.9414 23.4258 15.6846 24.9023 15.6846ZM24.9023 5.7002C27.1875 5.7002 28.8457 7.22266 28.8457 9.32031C28.8457 11.957 26.6885 14.0732 24.9023 14.0732C22.7178 14.0732 20.959 11.4727 20.959 9.32031C20.959 7.22656 22.6172 5.7002 24.9023 5.7002Z" fill="#FAFBFB"/>
<path d="M18.3291 23.417L17.7637 31.4825C17.7562 31.588 17.7696 31.694 17.8032 31.7943C17.8367 31.8947 17.8896 31.9875 17.959 32.0674C18.0284 32.1473 18.1128 32.2127 18.2075 32.26C18.3021 32.3072 18.4052 32.3354 18.5107 32.3428H18.5674C18.7712 32.3426 18.9674 32.2652 19.1165 32.1263C19.2656 31.9873 19.3565 31.7971 19.3711 31.5938L19.9365 23.5352C19.944 23.4297 19.9305 23.3237 19.897 23.2233C19.8635 23.123 19.8105 23.0302 19.7412 22.9503C19.6718 22.8704 19.5874 22.805 19.4927 22.7577C19.398 22.7104 19.295 22.6823 19.1895 22.6748C19.0839 22.6674 18.9779 22.6808 18.8776 22.7143C18.7772 22.7479 18.6844 22.8008 18.6046 22.8702C18.5247 22.9396 18.4592 23.024 18.412 23.1187C18.3647 23.2133 18.3365 23.3164 18.3291 23.4219V23.417Z" fill="#FAFBFB"/>
<path d="M35.8291 32.3418C36.0477 32.3224 36.2497 32.2172 36.3908 32.0492C36.532 31.8811 36.6007 31.664 36.582 31.4453C36.582 31.4453 35.7305 25.3389 35.6055 23.29C35.374 19.6113 33.127 16.6602 29.6162 16.123C28.3818 15.9336 26.1396 15.791 24.9678 15.79C23.3681 15.8178 21.7709 15.9283 20.1826 16.1211C18.536 16.3465 17.0279 17.1641 15.9404 18.4209C14.7979 19.7402 14.2871 21.4268 14.1826 23.2939C14.0654 25.3447 13.2891 31.4541 13.2891 31.4541C13.276 31.56 13.2841 31.6675 13.3129 31.7702C13.3417 31.873 13.3906 31.969 13.4568 32.0527C13.523 32.1364 13.6052 32.2061 13.6986 32.2578C13.792 32.3095 13.8947 32.3421 14.0008 32.3537C14.1068 32.3653 14.2142 32.3558 14.3165 32.3256C14.4189 32.2954 14.5142 32.2452 14.597 32.1779C14.6798 32.1105 14.7484 32.0274 14.7988 31.9333C14.8492 31.8393 14.8804 31.7361 14.8906 31.6299C14.8906 31.6299 15.6787 25.4541 15.791 23.3828C15.9512 20.4473 17.6885 18.0879 20.4023 17.7188C21.917 17.5348 23.4402 17.4292 24.9658 17.4023C26.0576 17.4023 28.2246 17.541 29.3711 17.7168C30.6316 17.9076 31.7841 18.5378 32.625 19.4961C33.5195 20.5234 33.9072 21.9033 33.9922 23.3877C34.1162 25.4619 34.9814 31.6387 34.9814 31.6387C35.0128 31.839 35.1162 32.0211 35.2723 32.1506C35.4284 32.28 35.6264 32.348 35.8291 32.3418Z" fill="#FAFBFB"/>
<path d="M30.5918 22.67C30.4857 22.6773 30.3821 22.7055 30.287 22.753C30.1919 22.8005 30.1071 22.8664 30.0376 22.9468C29.9681 23.0273 29.9151 23.1207 29.8819 23.2216C29.8486 23.3226 29.8356 23.4292 29.8437 23.5352L30.4102 31.5997C30.4242 31.803 30.5149 31.9935 30.6639 32.1327C30.8128 32.2719 31.009 32.3494 31.2129 32.3497H31.2705C31.4836 32.3344 31.6819 32.2353 31.8219 32.074C31.962 31.9127 32.0323 31.7024 32.0176 31.4893L31.4512 23.4239C31.4443 23.3179 31.4167 23.2143 31.3698 23.1191C31.3229 23.0238 31.2576 22.9387 31.1778 22.8687C31.098 22.7987 31.0052 22.7451 30.9046 22.711C30.804 22.6769 30.6977 22.663 30.5918 22.67Z" fill="#FAFBFB"/>
<path d="M30.043 39.6367L33.918 35.8594C34.0256 35.7545 34.1017 35.6215 34.1377 35.4756C34.1737 35.3297 34.1681 35.1767 34.1217 35.0337C34.0753 34.8908 33.9898 34.7637 33.8749 34.6668C33.7601 34.5699 33.6204 34.5071 33.4717 34.4854L28.1172 33.7041L25.7227 28.8555C25.6562 28.7206 25.5532 28.607 25.4255 28.5275C25.2978 28.4481 25.1504 28.406 25 28.406C24.8496 28.406 24.7022 28.4481 24.5745 28.5275C24.4468 28.607 24.3438 28.7206 24.2773 28.8555L21.8828 33.7071L16.5283 34.4883C16.3796 34.51 16.2399 34.5728 16.125 34.6697C16.0102 34.7666 15.9247 34.8937 15.8783 35.0367C15.8318 35.1796 15.8263 35.3327 15.8623 35.4786C15.8983 35.6245 15.9744 35.7574 16.082 35.8623L19.957 39.6397L19.043 44.9688C19.0171 45.1174 19.0334 45.2702 19.0902 45.41C19.1469 45.5497 19.2417 45.6707 19.3638 45.7593C19.4859 45.8478 19.6304 45.9003 19.7808 45.9107C19.9313 45.9212 20.0817 45.8892 20.2148 45.8184L25 43.3008L29.7852 45.8184C29.9009 45.879 30.0295 45.9108 30.1602 45.9112C30.2775 45.911 30.3933 45.8852 30.4997 45.8357C30.606 45.7861 30.7003 45.714 30.7759 45.6242C30.8514 45.5345 30.9065 45.4294 30.9373 45.3162C30.9681 45.203 30.9738 45.0844 30.9541 44.9688L30.043 39.6367ZM24.625 41.6778C23.6894 42.1543 20.9062 43.6309 20.9062 43.6309L21.6162 39.4893C21.6383 39.3606 21.6287 39.2285 21.5884 39.1043C21.5481 38.9801 21.4782 38.8676 21.3848 38.7764L18.376 35.8467L22.5342 35.2422C22.6634 35.2234 22.786 35.1734 22.8917 35.0967C22.9973 35.02 23.0827 34.9188 23.1406 34.8018L24.9961 31.0332L26.8516 34.8018C26.9095 34.9188 26.9949 35.02 27.1005 35.0967C27.2062 35.1734 27.3288 35.2234 27.458 35.2422L31.6162 35.8467L28.6074 38.7764C28.514 38.8676 28.4441 38.9801 28.4037 39.1043C28.3634 39.2285 28.3539 39.3606 28.376 39.4893L29.0859 43.6309C29.0859 43.6309 26.3027 42.1524 25.3672 41.6778C25.2532 41.6162 25.1256 41.584 24.9961 41.584C24.8665 41.584 24.739 41.6162 24.625 41.6778Z" fill="#FAFBFB"/>
<path d="M47.1318 36.9346L43.2168 36.3653L41.4658 32.8184C41.3995 32.6834 41.2967 32.5698 41.169 32.4903C41.0414 32.4108 40.894 32.3687 40.7436 32.3687C40.5933 32.3687 40.4459 32.4108 40.3183 32.4903C40.1906 32.5698 40.0878 32.6834 40.0215 32.8184L38.2705 36.3653L34.3555 36.9346C34.2067 36.9563 34.0671 37.0191 33.9522 37.116C33.8373 37.2129 33.7518 37.34 33.7054 37.4829C33.659 37.6259 33.6535 37.7789 33.6895 37.9249C33.7255 38.0708 33.8016 38.2037 33.9092 38.3086L36.7412 41.0703L36.0723 44.9688C36.0464 45.1174 36.0627 45.2702 36.1195 45.41C36.1762 45.5497 36.271 45.6707 36.3931 45.7593C36.5152 45.8478 36.6597 45.9003 36.8101 45.9107C36.9606 45.9212 37.111 45.8892 37.2441 45.8184L40.7451 43.9776L44.2471 45.8184C44.3628 45.879 44.4914 45.9108 44.6221 45.9112C44.7394 45.911 44.8553 45.8852 44.9616 45.8357C45.0679 45.7861 45.1622 45.714 45.2378 45.6242C45.3134 45.5345 45.3685 45.4294 45.3992 45.3162C45.43 45.203 45.4358 45.0844 45.416 44.9688L44.7471 41.0703L47.5791 38.3086C47.6867 38.2037 47.7628 38.0708 47.7988 37.9249C47.8348 37.7789 47.8293 37.6259 47.7828 37.4829C47.7364 37.34 47.6509 37.2129 47.5361 37.116C47.4212 37.0191 47.2815 36.9563 47.1328 36.9346H47.1318ZM40.3691 42.3545C39.7549 42.6631 37.9365 43.6328 37.9365 43.6328L38.4014 40.9248C38.4234 40.7961 38.4139 40.664 38.3736 40.5398C38.3333 40.4156 38.2634 40.3031 38.1699 40.2119L36.2021 38.294L38.9209 37.9033C39.0502 37.8846 39.1731 37.8346 39.2788 37.7577C39.3844 37.6808 39.4698 37.5793 39.5273 37.4619L40.7432 34.999L41.959 37.4619C42.0169 37.5792 42.1025 37.6806 42.2083 37.7575C42.3141 37.8344 42.437 37.8845 42.5664 37.9033L45.2842 38.294L43.3174 40.2119C43.2238 40.303 43.1538 40.4155 43.1135 40.5397C43.0731 40.664 43.0637 40.7961 43.0859 40.9248L43.5547 43.6328C43.5547 43.6328 41.7373 42.6631 41.123 42.3545C41.0072 42.2921 40.8777 42.2595 40.7461 42.2595C40.6145 42.2595 40.485 42.2921 40.3691 42.3545Z" fill="#FAFBFB"/>
<path d="M15.6445 36.9346L11.7295 36.3653L9.97851 32.8184C9.91218 32.6834 9.80936 32.5698 9.68172 32.4903C9.55408 32.4108 9.40671 32.3687 9.25634 32.3687C9.10597 32.3687 8.95861 32.4108 8.83097 32.4903C8.70332 32.5698 8.6005 32.6834 8.53417 32.8184L6.7832 36.3653L2.86816 36.9346C2.71945 36.9563 2.57976 37.0191 2.46489 37.116C2.35002 37.2129 2.26454 37.34 2.21812 37.4829C2.17169 37.6259 2.16617 37.7789 2.20218 37.9249C2.23818 38.0708 2.31428 38.2037 2.42187 38.3086L5.2539 41.0703L4.58984 44.9688C4.56397 45.1174 4.58032 45.2702 4.63704 45.41C4.69375 45.5497 4.78856 45.6707 4.91066 45.7593C5.03276 45.8478 5.17726 45.9003 5.32772 45.9107C5.47817 45.9212 5.62854 45.8892 5.76171 45.8184L9.26367 43.9776L12.7646 45.8184C12.8804 45.879 13.009 45.9108 13.1396 45.9112C13.257 45.911 13.3728 45.8852 13.4792 45.8357C13.5855 45.7861 13.6798 45.714 13.7553 45.6242C13.8309 45.5345 13.886 45.4294 13.9168 45.3162C13.9476 45.203 13.9533 45.0844 13.9336 44.9688L13.2646 41.0703L16.0967 38.3086C16.2043 38.2037 16.2804 38.0708 16.3164 37.9249C16.3524 37.7789 16.3469 37.6259 16.3004 37.4829C16.254 37.34 16.1685 37.2129 16.0537 37.116C15.9388 37.0191 15.7991 36.9563 15.6504 36.9346H15.6445ZM8.88671 42.3545L6.45019 43.6328L6.91406 40.9248C6.9363 40.7961 6.92685 40.664 6.88652 40.5397C6.8462 40.4155 6.77621 40.303 6.68261 40.2119L4.71581 38.294L7.43359 37.9033C7.56301 37.8845 7.68591 37.8344 7.79172 37.7575C7.89752 37.6806 7.98307 37.5792 8.04101 37.4619L9.25683 34.999L10.4727 37.4619C10.5302 37.5793 10.6155 37.6808 10.7212 37.7577C10.8269 37.8346 10.9497 37.8846 11.0791 37.9033L13.7978 38.294L11.8301 40.2119C11.7366 40.3031 11.6667 40.4156 11.6264 40.5398C11.5861 40.664 11.5766 40.7961 11.5986 40.9248L12.0635 43.6328L9.63085 42.3545C9.51885 42.286 9.39009 42.2497 9.25878 42.2497C9.12748 42.2497 8.99872 42.286 8.88671 42.3545Z" fill="#FAFBFB"/>
</svg>
