<svg width="50" height="50" viewBox="0 0 50 50" fill="none" xmlns="http://www.w3.org/2000/svg">
<path d="M48.1973 43.2422L46.6543 37.4418C46.6194 37.3112 46.5467 37.1938 46.4452 37.1045C46.3436 37.0152 46.2179 36.958 46.0839 36.9401C45.9499 36.9223 45.8136 36.9445 45.6922 37.004C45.5709 37.0635 45.4698 37.1577 45.402 37.2746L43.6152 40.357L39.1488 37.7398V22.548C39.148 22.5114 39.1443 22.4748 39.1379 22.4387C39.1431 22.411 39.1467 22.3831 39.1488 22.3551C39.149 22.2358 39.1178 22.1185 39.0584 22.015C38.9991 21.9115 38.9136 21.8254 38.8106 21.7652L25.6836 14.075V8.90899H29.2441C29.3793 8.90884 29.5114 8.86863 29.6237 8.79343C29.736 8.71823 29.8235 8.61143 29.8752 8.48651C29.9268 8.36159 29.9402 8.22417 29.9138 8.09162C29.8873 7.95907 29.8222 7.83733 29.7266 7.7418L25.4832 3.49766C25.355 3.36956 25.1812 3.29761 25 3.29761C24.8188 3.29761 24.645 3.36956 24.5168 3.49766L20.2734 7.7418C20.1778 7.83738 20.1126 7.95919 20.0862 8.09181C20.0598 8.22444 20.0733 8.36192 20.125 8.48687C20.1767 8.61182 20.2643 8.71862 20.3768 8.79376C20.4892 8.86889 20.6214 8.90899 20.7566 8.90899H24.3164V14.075L11.1895 21.7652C11.0865 21.8255 11.0011 21.9116 10.9417 22.0151C10.8824 22.1186 10.8512 22.2358 10.8512 22.3551C10.8532 22.3832 10.857 22.4111 10.8625 22.4387C10.8557 22.4748 10.8519 22.5113 10.8512 22.548V37.7391L6.38516 40.3563L4.59805 37.2734C4.53015 37.1565 4.42914 37.0624 4.30775 37.0028C4.18637 36.9433 4.05007 36.9211 3.91607 36.939C3.78206 36.9569 3.65636 37.0141 3.55485 37.1034C3.45333 37.1926 3.38055 37.31 3.3457 37.4406L1.80274 43.2422C1.75624 43.4175 1.78122 43.6041 1.87219 43.7609C1.96316 43.9178 2.11267 44.0322 2.28789 44.0789L8.08867 45.6219C8.21931 45.6566 8.3573 45.6517 8.48519 45.608C8.61309 45.5643 8.72515 45.4836 8.80721 45.3762C8.88928 45.2688 8.93766 45.1395 8.94625 45.0046C8.95484 44.8697 8.92325 44.7353 8.85547 44.6184L7.07031 41.5383L11.5344 38.923L24.6539 46.6086C24.6617 46.6133 24.6707 46.6148 24.6785 46.6191C24.716 46.6391 24.7552 46.6556 24.7957 46.6684C24.8094 46.6727 24.8227 46.6777 24.8367 46.6813C24.9429 46.7099 25.0548 46.7099 25.1609 46.6813C25.175 46.6777 25.1883 46.6727 25.2 46.6684C25.2405 46.6556 25.2797 46.6391 25.3172 46.6191C25.325 46.6148 25.334 46.6133 25.3418 46.6086L38.4652 38.923L42.9293 41.5402L41.1445 44.6188C41.0843 44.7227 41.0524 44.8406 41.0523 44.9607C41.0521 45.0808 41.0836 45.1989 41.1435 45.303C41.2035 45.407 41.2898 45.4935 41.3938 45.5536C41.4978 45.6137 41.6158 45.6453 41.7359 45.6453C41.7953 45.6452 41.8543 45.6374 41.9117 45.6223L47.7125 44.0793C47.8877 44.0325 48.0372 43.918 48.1281 43.7611C48.219 43.6041 48.2439 43.4175 48.1973 43.2422ZM25 4.94766L27.5941 7.5418H22.4059L25 4.94766ZM3.3 42.932L4.24297 39.3871L6.84492 43.875L3.3 42.932ZM25 15.259L37.1129 22.3551L25 29.4508L12.8875 22.3551L25 15.259ZM12.2184 23.5477L24.3164 30.6348V44.8262L12.2184 37.7391V23.5477ZM25.6836 44.8262V30.6348L37.7816 23.5477V37.7391L25.6836 44.8262ZM43.1551 43.875L45.757 39.3871L46.7004 42.932L43.1551 43.875Z" fill="#FAFBFB"/>
</svg>
