<svg width="150" height="70" viewBox="0 0 150 70" fill="none" xmlns="http://www.w3.org/2000/svg">
<g clip-path="url(#clip0_58_611)">
<path fill-rule="evenodd" clip-rule="evenodd" d="M38.608 16.9138C38.5687 16.5609 38.5687 16.2046 38.608 15.8518C38.8551 14.8729 38.3968 13.4784 40.0187 13.2707C40.1445 13.2707 40.3063 12.9567 40.3332 12.7674C40.486 11.7192 40.5983 10.6664 40.7286 9.61367C40.8005 9.05958 40.5759 8.86103 40.0367 8.86103C31.617 8.86103 23.2003 8.86103 14.7866 8.86103C14.678 8.84178 14.5666 8.84678 14.46 8.87568C14.3534 8.90459 14.2541 8.95673 14.1689 9.02857C14.0836 9.1004 14.0144 9.19025 13.966 9.292C13.9175 9.39375 13.8909 9.50504 13.888 9.61829C13.596 11.1374 13.259 12.6427 12.9086 14.1434C12.7693 14.7344 12.9086 15.0068 13.5286 15.0022C14.9349 15.0022 16.3816 14.799 17.6935 15.958C17.6665 15.0345 18.0664 14.6466 18.7359 14.6836C19.5361 14.7327 20.3319 14.8407 21.1171 15.0068C21.3058 15.0484 21.517 15.3854 21.5664 15.6209C21.7865 16.5167 20.9643 16.4982 20.3578 16.8815C20.569 18.1836 20.8071 19.5319 21.0183 20.9171H20.1197C20.3848 21.8406 20.6229 22.6532 20.852 23.4613L18.7988 21.5035L18.4977 21.7621L19.6255 23.9692L19.4952 24.0708L18.5292 23.4613L18.2956 23.5906C19.2885 24.4125 18.4618 25.5022 18.9156 26.5088C19.3109 27.3953 19.1402 28.5543 19.2166 29.584L18.318 29.3208C17.7294 33.3841 16.8039 37.2535 15.8739 41.2199L14.5979 40.2502L14.4002 40.4488C14.6953 40.9595 14.9363 41.5013 15.1191 42.0648C15.2863 42.7683 15.3424 43.4948 15.2853 44.2166C15.2853 44.4982 14.7686 44.7245 14.5215 45.0061C14.4002 45.1493 14.2609 45.394 14.3014 45.5371C14.562 46.396 14.8495 47.2502 15.9143 47.5642L15.0697 45.7865L17.8418 47.4072V46.6361C19.3065 46.4837 20.0388 47.7627 21.1755 48.4831C20.7262 46.5853 20.7262 46.5853 20.9374 46.0543L22.8783 47.4395L23.058 47.2548L22.8154 45.9019L23.1209 46.0035C23.4388 45.6113 23.6978 45.1724 23.8892 44.7014C24.2711 43.1823 24.5587 41.6308 24.8821 40.084C25.0753 39.1605 25.2416 38.237 26.4007 38.0985C26.2749 37.1519 26.1536 36.2838 26.0593 35.4158C26.0368 35.2265 26.0593 34.9171 26.1491 34.8571C26.8995 34.423 26.5984 33.7027 26.6479 33.0886C26.7063 31.9204 26.6973 30.7522 26.7287 29.5886C26.7341 29.5427 26.75 29.4987 26.7749 29.4602C26.7999 29.4217 26.8333 29.3898 26.8725 29.367C27.7711 29.053 27.5015 28.3973 27.3667 27.677L29.0336 28.9837L29.2537 28.8083C29.0426 28.2957 28.8494 27.774 28.6113 27.2707C28.3057 26.6335 27.7846 26.0424 28.5124 25.3313C28.6023 25.2436 28.5124 24.8696 28.4091 24.6757C28.2563 24.3294 28.0451 24.0108 27.798 23.5629C28.8988 23.3505 28.9932 22.5424 29.1459 21.7159C29.4829 19.8689 29.9052 18.022 30.2332 16.1981C30.3904 15.2746 30.7858 14.9006 31.7158 15.0068C32.2338 15.1177 32.773 15.0478 33.2479 14.8083C34.0432 14.2126 34.6812 14.4712 35.3596 14.8821C36.393 15.5101 37.4128 16.1612 38.608 16.9138ZM50.2131 26.0055C50.4288 39.4606 39.2729 51.803 24.662 51.6044C10.7834 51.4151 -0.161287 39.4883 0.000457539 25.3036C0.166695 10.7495 12.3784 -0.0551968 25.5606 0.000212142C39.0887 0.0602385 50.4872 12.2641 50.2131 26.0055Z" fill="#ED8400"/>
<path fill-rule="evenodd" clip-rule="evenodd" d="M137.833 33.0701L133.587 19.6057L133.192 19.638C131.808 24.0754 130.429 28.5127 129.009 33.0701H137.833ZM150 46.5991C149.654 46.6315 149.429 46.6776 149.2 46.673C147.066 46.6453 144.936 46.5991 142.802 46.5899C142.568 46.6272 142.33 46.5681 142.138 46.4255C141.946 46.2828 141.817 46.0681 141.778 45.828C141.392 44.5213 140.929 43.2377 140.551 41.9263C140.513 41.6566 140.375 41.4126 140.166 41.2455C139.956 41.0785 139.692 41.0014 139.428 41.0305C135.34 41.0305 131.251 41.0305 127.158 41.0628C126.977 41.1 126.807 41.1804 126.662 41.2975C126.517 41.4146 126.401 41.5652 126.322 41.737C125.824 43.1222 125.397 44.5536 124.975 45.9758C124.94 46.1991 124.821 46.3994 124.644 46.5326C124.466 46.6659 124.244 46.7214 124.027 46.6869C121.834 46.6869 119.637 46.7146 117.449 46.6407C117.198 46.6176 116.955 46.5408 116.736 46.4151C116.516 46.2894 116.324 46.1177 116.173 45.9111C112.43 39.7469 108.742 33.5457 105.013 27.3676C104.802 27.0864 104.687 26.7414 104.687 26.3864C104.687 26.0314 104.802 25.6863 105.013 25.4052C108.724 19.2887 112.408 13.1552 116.065 7.0048C116.183 6.76406 116.366 6.56378 116.593 6.42846C116.819 6.29314 117.079 6.22867 117.341 6.24293C123.772 6.26755 130.203 6.26755 136.634 6.24293C136.754 6.22321 136.877 6.22814 136.996 6.25742C137.114 6.28671 137.226 6.33977 137.324 6.41357C137.423 6.48737 137.506 6.58044 137.57 6.68745C137.633 6.79446 137.675 6.91329 137.694 7.03712C141.699 19.9474 145.717 32.8546 149.748 45.7588C149.861 45.9942 149.906 46.2251 150 46.5991Z" fill="#ED8400"/>
<path fill-rule="evenodd" clip-rule="evenodd" d="M51.9469 26.421C51.9469 20.0582 51.9469 13.6954 51.9469 7.32802C51.9469 6.51073 52.1266 6.23369 52.9758 6.23831C63.4592 6.26601 73.9427 6.26601 84.4261 6.23831C85.2348 6.23831 85.5134 6.45533 85.4864 7.30955C85.4235 9.25348 85.4101 11.2066 85.455 13.1552C85.455 13.9679 85.2169 14.1803 84.4441 14.1756C76.559 14.1479 68.6785 14.1756 60.7979 14.1756C59.6388 14.1756 59.6343 14.1756 59.6388 15.3808C59.6388 17.4171 59.6747 19.458 59.6388 21.4989C59.6388 22.2977 59.9084 22.5516 60.6766 22.547C65.9828 22.5193 71.2844 22.547 76.5905 22.5147C77.3543 22.5147 77.6239 22.6994 77.6014 23.5305C77.543 25.5068 77.552 27.4876 77.6014 29.4685C77.6014 30.2165 77.4082 30.4613 76.6534 30.4566C71.3518 30.4289 66.0457 30.4566 60.744 30.4197C59.8185 30.4197 59.5759 30.6875 59.6253 31.5971C59.7331 33.7212 59.7736 35.8544 59.796 37.983C59.796 38.6064 60.0566 38.7957 60.5958 38.768C60.8608 38.768 61.1259 38.768 61.3955 38.768H84.2419C85.4775 38.768 85.4775 38.768 85.473 40.0101C85.473 41.9263 85.4235 43.8471 85.473 45.7634C85.473 46.5391 85.2214 46.733 84.5025 46.7284C73.9532 46.6545 63.4038 46.6022 52.8545 46.5714C52.1581 46.5714 51.9559 46.3636 51.9559 45.6479C51.9559 39.2113 51.9469 32.8161 51.9469 26.421Z" fill="#ED8400"/>
<path fill-rule="evenodd" clip-rule="evenodd" d="M90.851 32.7838C90.851 32.4929 90.815 32.202 90.815 31.9111C90.815 23.7522 90.8465 15.5932 90.815 7.43883C90.815 6.51535 91.0307 6.24754 91.9472 6.25678C96.5974 6.30757 101.252 6.28448 105.902 6.28448H106.945C101.778 15.3208 96.3009 24.0107 90.851 32.7838Z" fill="#ED8400"/>
<path fill-rule="evenodd" clip-rule="evenodd" d="M99.7424 34.4646L106.9 46.5437H92.4504C94.8452 42.582 97.2354 38.6156 99.7424 34.4646Z" fill="#ED8400"/>
<path fill-rule="evenodd" clip-rule="evenodd" d="M20.1282 68.144V64.5609C20.1209 64.4934 20.1351 64.4254 20.1686 64.3669C20.265 64.2962 20.3835 64.265 20.5011 64.2792H21.3368C21.5015 64.2792 21.6049 64.3023 21.6468 64.3485C21.6715 64.3773 21.6903 64.411 21.7019 64.4475C21.7135 64.484 21.7176 64.5226 21.7142 64.5609V68.1347C21.7034 68.2936 21.7328 68.4527 21.7996 68.5965C21.8715 68.705 21.9713 68.7909 22.0879 68.8447C22.2045 68.8985 22.3333 68.9181 22.46 68.9012C22.6665 68.9202 22.8722 68.8574 23.0351 68.7258C23.1665 68.5599 23.2294 68.3477 23.2103 68.1347V64.5609C23.2018 64.4928 23.2178 64.4238 23.2553 64.3669C23.3504 64.2936 23.47 64.2621 23.5877 64.2792H24.4234C24.5314 64.2648 24.641 64.2893 24.7334 64.3485C24.78 64.4084 24.8025 64.4844 24.7963 64.5609V68.144C24.8154 68.5642 24.6862 68.9775 24.4324 69.3076C24.055 69.7693 23.3945 70.0002 22.46 70.0002C21.5255 70.0002 20.8695 69.7739 20.4921 69.3168C20.2381 68.9833 20.1089 68.5671 20.1282 68.144Z" fill="#ED8400"/>
<path fill-rule="evenodd" clip-rule="evenodd" d="M32.6544 67.045V64.5609C32.6482 64.4929 32.664 64.4247 32.6993 64.3669C32.7945 64.2936 32.9141 64.2621 33.0318 64.2792H33.836C33.9441 64.2648 34.0536 64.2893 34.1461 64.3485C34.1919 64.4088 34.2143 64.4845 34.209 64.5609V69.64C34.2175 69.7081 34.2015 69.7771 34.164 69.834C34.07 69.9061 33.9523 69.9376 33.836 69.9217H33.1486C33.0564 69.9295 32.9638 69.9137 32.8791 69.8755C32.843 69.8436 32.8139 69.8043 32.7937 69.7601L31.0594 66.8742V69.6446C31.0594 69.7693 31.028 69.8478 30.9696 69.8801C30.8796 69.9166 30.783 69.9324 30.6865 69.9263H29.8823C29.7957 69.9337 29.7085 69.9227 29.6262 69.894C29.5849 69.8689 29.5518 69.8319 29.531 69.7875C29.5102 69.7431 29.5027 69.6934 29.5094 69.6446V64.5655C29.5021 64.498 29.5163 64.43 29.5498 64.3716C29.645 64.2982 29.7645 64.2667 29.8823 64.2838H30.718C30.7949 64.2748 30.8728 64.2882 30.9427 64.3225C31.0126 64.3568 31.0717 64.4106 31.1133 64.4777L32.6544 67.045Z" fill="#ED8400"/>
<path fill-rule="evenodd" clip-rule="evenodd" d="M38.8142 69.6539V64.5747C38.8057 64.5066 38.8216 64.4376 38.8591 64.3808C38.9531 64.3087 39.0708 64.2772 39.1871 64.2931H40.0228C40.1322 64.2783 40.2433 64.3028 40.3373 64.3623C40.3839 64.4223 40.4064 64.4983 40.4002 64.5747V69.6539C40.4002 69.7801 40.3687 69.8586 40.3058 69.8894C40.2161 69.9266 40.1193 69.9424 40.0228 69.9355H39.1871C39.1005 69.9422 39.0135 69.9312 38.931 69.9032C38.8906 69.8773 38.8581 69.8401 38.8374 69.796C38.8167 69.7518 38.8087 69.7025 38.8142 69.6539Z" fill="#ED8400"/>
<path fill-rule="evenodd" clip-rule="evenodd" d="M44.8661 64.2792H45.904C45.9751 64.2777 46.0452 64.2969 46.1062 64.3346C46.1331 64.3503 46.1565 64.3715 46.1751 64.3969C46.1936 64.4224 46.2069 64.4514 46.214 64.4824L47.1575 67.5206C47.1934 67.6222 47.2204 67.673 47.2429 67.673C47.2653 67.673 47.3013 67.6222 47.3372 67.5206L48.2358 64.4639C48.2807 64.3392 48.3975 64.2792 48.5907 64.2792H49.6421C49.7544 64.2792 49.8128 64.3161 49.8128 64.3993C49.8104 64.4238 49.8104 64.4486 49.8128 64.4731L48.2088 69.6723C48.1889 69.7618 48.1357 69.8397 48.0606 69.8894C47.9825 69.9231 47.8981 69.9389 47.8135 69.9355H46.5285C46.4653 69.9409 46.4021 69.9247 46.3488 69.8894C46.3054 69.8447 46.2744 69.7889 46.2589 69.7278L44.6549 64.4824C44.6235 64.3808 44.6549 64.3254 44.6909 64.3069C44.7476 64.2888 44.8067 64.2794 44.8661 64.2792Z" fill="#ED8400"/>
<path fill-rule="evenodd" clip-rule="evenodd" d="M54.0541 69.6539V64.5747C54.0468 64.5073 54.061 64.4392 54.0945 64.3808C54.1909 64.3101 54.3094 64.2788 54.427 64.2931H57.9584C58.0664 64.2787 58.176 64.3031 58.2684 64.3623C58.2926 64.3914 58.3107 64.4252 58.3215 64.4618C58.3323 64.4983 58.3357 64.5368 58.3313 64.5747V65.1473C58.3312 65.1763 58.3237 65.2048 58.3095 65.2299C58.2953 65.255 58.2749 65.2759 58.2505 65.2904C58.1732 65.3321 58.0857 65.3498 57.9989 65.3412H55.8468C55.721 65.3412 55.6536 65.3874 55.6536 65.4705V66.3201C55.6536 66.4171 55.694 66.4679 55.7749 66.4679H57.4642C57.5259 66.4674 57.5871 66.4799 57.6439 66.5048C57.6641 66.5162 57.6809 66.5329 57.6928 66.5532C57.7046 66.5735 57.711 66.5966 57.7113 66.6202V67.3544C57.7113 67.4652 57.6394 67.516 57.4957 67.516H55.7928C55.7743 67.513 55.7553 67.5145 55.7374 67.5203C55.7195 67.5261 55.7031 67.5361 55.6896 67.5496C55.6761 67.563 55.6658 67.5795 55.6596 67.5977C55.6533 67.6159 55.6513 67.6354 55.6536 67.6545V68.7997C55.6536 68.8643 55.694 68.8966 55.7749 68.8966H58.1831C58.2642 68.8875 58.3461 68.9053 58.4167 68.9474C58.4348 68.9671 58.4489 68.9903 58.4582 69.0157C58.4674 69.0411 58.4717 69.0681 58.4706 69.0952V69.6631C58.4779 69.7305 58.4637 69.7986 58.4302 69.857C58.3338 69.9277 58.2153 69.959 58.0977 69.9448H54.445C54.3584 69.9514 54.2714 69.9404 54.1889 69.9125C54.1427 69.8895 54.1048 69.8521 54.0806 69.8057C54.0564 69.7592 54.0471 69.7061 54.0541 69.6539Z" fill="#ED8400"/>
<path fill-rule="evenodd" clip-rule="evenodd" d="M64.59 65.452V66.4355C64.59 66.5187 64.6394 66.5556 64.7382 66.5556H65.2414C65.4913 66.568 65.7397 66.5105 65.9603 66.3894C66.0425 66.3457 66.1112 66.2793 66.1588 66.1978C66.2064 66.1163 66.231 66.0227 66.2299 65.9276C66.2322 65.8454 66.2144 65.764 66.1784 65.6906C66.1423 65.6172 66.0889 65.5543 66.0232 65.5074C65.7915 65.3531 65.5167 65.2816 65.2414 65.3043H64.7921C64.6484 65.3135 64.59 65.3597 64.59 65.452ZM63.3814 64.2792H65.3627C66.0784 64.2272 66.7915 64.4116 67.398 64.8056C67.5664 64.9221 67.7042 65.0796 67.7991 65.2641C67.8939 65.4486 67.9429 65.6543 67.9417 65.863C67.9467 66.0413 67.9171 66.2189 67.8546 66.3854C67.7921 66.5519 67.698 66.7039 67.5777 66.8326C67.3821 67.0423 67.133 67.1911 66.8589 67.2621C66.796 67.2621 66.7645 67.2944 66.7645 67.3359C66.7705 67.3833 66.7892 67.4281 66.8184 67.4652L68.1663 69.6446C68.1834 69.6809 68.1941 69.72 68.1978 69.7601C68.1978 69.8801 68.1124 69.9355 67.9417 69.9355H66.8274C66.7124 69.9457 66.597 69.9216 66.4949 69.8663C66.4656 69.8374 66.4399 69.8048 66.4186 69.7693L65.1471 67.6638C65.1216 67.6275 65.0877 67.5983 65.0485 67.579C65.0092 67.5596 64.9659 67.5507 64.9224 67.553H64.6978C64.6214 67.553 64.581 67.5853 64.581 67.6499V69.6539C64.581 69.7785 64.5495 69.857 64.4911 69.8894C64.4012 69.9259 64.3046 69.9416 64.2081 69.9355H63.3724C63.2843 69.9424 63.1958 69.9314 63.1118 69.9032C63.0713 69.8773 63.0389 69.8401 63.0182 69.796C62.9975 69.7518 62.9895 69.7025 62.995 69.6539V64.5747C62.9865 64.5066 63.0024 64.4376 63.0399 64.3808C63.0871 64.3409 63.1417 64.3113 63.2004 64.2938C63.2592 64.2763 63.3207 64.2714 63.3814 64.2792Z" fill="#ED8400"/>
<path fill-rule="evenodd" clip-rule="evenodd" d="M72.5873 69.6216V68.8966C72.585 68.8689 72.591 68.8411 72.6047 68.8171C72.6184 68.7931 72.639 68.7741 72.6637 68.7627C72.711 68.7379 72.7634 68.7252 72.8165 68.7258C72.8822 68.7197 72.9484 68.7197 73.0142 68.7258L73.1849 68.7581C73.3062 68.7858 73.4904 68.8135 73.733 68.8412C73.9756 68.8689 74.1823 68.8781 74.3171 68.8781C74.5751 68.8917 74.8325 68.841 75.0674 68.7304C75.1459 68.6963 75.2133 68.64 75.2618 68.5681C75.3103 68.4962 75.338 68.4115 75.3415 68.3241C75.3415 68.0701 75.1348 67.83 74.7215 67.6084L74.0565 67.2851C73.6682 67.1125 73.304 66.8873 72.9737 66.6156C72.8472 66.5003 72.747 66.3578 72.6802 66.1982C72.6135 66.0386 72.5817 65.8658 72.5873 65.6921C72.5828 65.4583 72.6429 65.2279 72.7605 65.0276C72.8782 64.8274 73.0487 64.6656 73.2523 64.5609C73.8094 64.2764 74.428 64.1429 75.0494 64.173C75.3755 64.1714 75.7013 64.193 76.0244 64.2376C76.5096 64.3023 76.7523 64.3946 76.7523 64.5193V65.3043C76.7298 65.3689 76.6669 65.4012 76.568 65.4012L76.0559 65.3274L75.5032 65.2489H75.1663C74.9485 65.2337 74.7302 65.27 74.5283 65.3551C74.398 65.4243 74.3306 65.5121 74.3306 65.6136C74.3306 65.7937 74.7349 66.0754 75.5392 66.4771C75.9121 66.6474 76.2588 66.8729 76.568 67.1466C76.7299 67.2954 76.8596 67.4776 76.9486 67.6812C77.0376 67.8849 77.084 68.1054 77.0847 68.3287C77.0851 68.5759 77.0196 68.8186 76.8952 69.0302C76.7709 69.2419 76.5924 69.4144 76.3793 69.5292C75.7861 69.8531 75.1182 70.0047 74.4474 69.9679C74.1808 69.9679 73.8813 69.954 73.5488 69.9263C73.2971 69.9103 73.0474 69.8701 72.803 69.8062C72.7348 69.7976 72.6723 69.763 72.6278 69.7093C72.6071 69.6841 72.5932 69.6539 72.5873 69.6216Z" fill="#ED8400"/>
<path fill-rule="evenodd" clip-rule="evenodd" d="M83.7027 67.8762H84.6013C84.6822 67.8762 84.7047 67.8392 84.6777 67.7561L84.2284 66.3247C84.2207 66.305 84.2083 66.2876 84.1925 66.2739L84.152 66.2462C84.1219 66.2656 84.0971 66.2926 84.0801 66.3247L83.6623 67.7561C83.6039 67.8762 83.6264 67.8762 83.7027 67.8762ZM83.4691 64.2653H84.817C84.892 64.2628 84.9668 64.2753 85.0371 64.3023C85.103 64.3465 85.1509 64.4138 85.1719 64.4916L86.9062 69.6816C86.913 69.7166 86.913 69.7527 86.9062 69.7878C86.9062 69.8801 86.8298 69.9217 86.6726 69.9217H85.6212C85.5396 69.9313 85.4575 69.9081 85.3921 69.857C85.3438 69.814 85.308 69.7581 85.2887 69.6954L85.0731 69.0813C85.0461 69.0028 84.9742 68.9613 84.8619 68.9613H83.3927C83.2714 68.9613 83.1995 69.0028 83.1816 69.0813L82.9749 69.7231C82.9585 69.7772 82.9273 69.8253 82.885 69.8617C82.8208 69.9077 82.7429 69.9289 82.6649 69.9217H81.627C81.4922 69.9217 81.4203 69.8709 81.4203 69.7693V69.7231C81.4234 69.7095 81.4234 69.6952 81.4203 69.6816L83.1187 64.5055C83.135 64.4279 83.1802 64.36 83.2445 64.3161C83.3164 64.2895 83.3926 64.277 83.4691 64.2792V64.2653Z" fill="#ED8400"/>
<path fill-rule="evenodd" clip-rule="evenodd" d="M91.1789 69.6539V64.5747C91.1704 64.5066 91.1864 64.4376 91.2239 64.3808C91.319 64.3075 91.4386 64.2759 91.5563 64.2931H92.392C92.5 64.2787 92.6096 64.3031 92.702 64.3623C92.7487 64.4223 92.7712 64.4983 92.7649 64.5747V68.7997C92.7649 68.8643 92.8054 68.8966 92.8817 68.8966H94.8766C94.9578 68.8874 95.0396 68.9053 95.1102 68.9474C95.1284 68.9671 95.1425 68.9903 95.1517 69.0157C95.161 69.0411 95.1652 69.0681 95.1641 69.0952V69.6631C95.1727 69.7312 95.1567 69.8002 95.1192 69.857C95.0241 69.9304 94.9045 69.9619 94.7867 69.9448H91.5563C91.4683 69.9517 91.3797 69.9407 91.2958 69.9125C91.2538 69.8859 91.2203 69.8472 91.1995 69.8012C91.1788 69.7552 91.1716 69.704 91.1789 69.6539Z" fill="#ED8400"/>
<path fill-rule="evenodd" clip-rule="evenodd" d="M110.166 68.1994L109.627 69.7231C109.591 69.8201 109.55 69.8801 109.505 69.8986C109.42 69.9267 109.33 69.9377 109.24 69.9309H108.063C107.968 69.9401 107.871 69.9174 107.789 69.8663C107.736 69.8317 107.694 69.7819 107.668 69.7231L106.104 64.5562C106.092 64.5111 106.084 64.4646 106.082 64.4177C106.082 64.3208 106.158 64.2746 106.307 64.2746H107.434C107.511 64.2697 107.586 64.2944 107.645 64.3438C107.69 64.3836 107.724 64.4345 107.744 64.4916L108.737 67.9685C108.739 67.99 108.739 68.0116 108.737 68.0332C108.748 68.0601 108.763 68.085 108.782 68.107C108.782 68.107 108.809 68.107 108.823 68.0562C108.835 68.0307 108.845 68.0045 108.854 67.9777L109.393 66.2047C109.401 66.1542 109.401 66.1027 109.393 66.0523C109.386 65.961 109.368 65.871 109.339 65.7845L108.966 64.5562C108.953 64.5191 108.946 64.4802 108.944 64.4408C108.944 64.33 109.02 64.2746 109.169 64.2746H110.296C110.382 64.2623 110.47 64.2855 110.539 64.3392C110.574 64.3864 110.597 64.442 110.606 64.5008L111.451 67.5806C111.448 67.5959 111.448 67.6115 111.451 67.6268C111.451 67.6268 111.451 67.6268 111.482 67.6545C111.514 67.6822 111.536 67.6037 111.536 67.5806L111.662 67.0866L112.489 64.4916C112.5 64.4205 112.537 64.3563 112.592 64.3115C112.653 64.2801 112.722 64.2673 112.79 64.2746H113.904C114.052 64.2746 114.129 64.3254 114.129 64.427C114.123 64.4674 114.116 64.5074 114.106 64.547L112.457 69.6677C112.443 69.7504 112.398 69.8241 112.332 69.8732C112.265 69.9223 112.183 69.943 112.102 69.9309H110.975C110.91 69.9368 110.844 69.9194 110.79 69.8815C110.736 69.8436 110.697 69.7876 110.678 69.7231L110.166 68.1994Z" fill="#ED8400"/>
<path fill-rule="evenodd" clip-rule="evenodd" d="M120.338 67.8762H121.236C121.317 67.8762 121.34 67.8392 121.313 67.7561L120.841 66.3247C120.833 66.305 120.821 66.2876 120.805 66.2739L120.765 66.2462C120.735 66.2656 120.71 66.2926 120.693 66.3247L120.275 67.7561C120.235 67.8762 120.261 67.8762 120.338 67.8762ZM120.104 64.2653H121.452C121.527 64.2628 121.602 64.2753 121.672 64.3023C121.738 64.3465 121.786 64.4138 121.807 64.4916L123.555 69.6954C123.562 69.7305 123.562 69.7666 123.555 69.8016C123.555 69.894 123.474 69.9355 123.317 69.9355H122.27C122.188 69.9451 122.106 69.922 122.041 69.8709C121.992 69.8279 121.957 69.7719 121.937 69.7093L121.722 69.0952C121.695 69.0167 121.623 68.9751 121.511 68.9751H120.05C119.929 68.9751 119.857 69.0167 119.835 69.0952L119.632 69.737C119.616 69.7911 119.585 69.8391 119.543 69.8755C119.478 69.9212 119.4 69.9424 119.322 69.9355H118.285C118.145 69.9355 118.078 69.8847 118.078 69.7832V69.7231C118.089 69.7115 118.097 69.6972 118.1 69.6816L119.749 64.4916C119.766 64.4141 119.811 64.3462 119.875 64.3023C119.949 64.2797 120.027 64.2719 120.104 64.2792V64.2653Z" fill="#ED8400"/>
<path fill-rule="evenodd" clip-rule="evenodd" d="M127.675 64.2792H128.919C128.994 64.2748 129.067 64.2941 129.13 64.3346C129.167 64.3627 129.196 64.3991 129.216 64.4408L130.065 66.0708C130.065 66.0708 130.065 66.1031 130.119 66.1354C130.141 66.1219 130.16 66.1029 130.173 66.08L131.134 64.4547C131.169 64.3991 131.215 64.3519 131.269 64.3161C131.317 64.292 131.369 64.2793 131.422 64.2792H132.675C132.842 64.2792 132.922 64.3254 132.922 64.4131C132.922 64.4424 132.915 64.4711 132.9 64.4962C132.898 64.51 132.898 64.524 132.9 64.5378L131.058 67.239C131.026 67.2805 130.995 67.3313 130.959 67.3867C130.922 67.4458 130.903 67.515 130.905 67.5853V69.6539C130.905 69.7785 130.874 69.857 130.815 69.8894C130.725 69.9259 130.629 69.9416 130.532 69.9355H129.697C129.61 69.9429 129.523 69.9319 129.44 69.9032C129.398 69.8788 129.364 69.842 129.343 69.7976C129.321 69.7532 129.313 69.7031 129.319 69.6539V67.5853C129.326 67.5347 129.326 67.4835 129.319 67.4329C129.289 67.3652 129.253 67.3004 129.211 67.239L127.522 64.5378C127.493 64.4935 127.475 64.4429 127.468 64.39C127.467 64.3689 127.473 64.3478 127.485 64.3309C127.497 64.3139 127.515 64.3021 127.535 64.2977C127.581 64.286 127.628 64.2798 127.675 64.2792Z" fill="#ED8400"/>
</g>
<defs>
<clipPath id="clip0_58_611">
<rect width="150" height="70" fill="white"/>
</clipPath>
</defs>
</svg>
